<svg xmlns="http://www.w3.org/2000/svg" width="245" height="145" viewBox="0 0 245 145" style="font-family: sans-serif; font-size: 10px;">
<rect width="100%" height="100%" fill="#323437" rx="8"/>
<text x="5" y="45" fill="#646669">Mon</text>
<text x="5" y="75" fill="#646669">Wed</text>
<text x="5" y="105" fill="#646669">Fri</text>
<text x="30" y="15" fill="#646669">Jan</text>
<rect x="30" y="20" width="12" height="12" fill="#2c2e31" rx="2"><title>2026-01-18: 0 tests</title></rect>
<rect x="30" y="35" width="12" height="12" fill="#2c2e31" rx="2"><title>2026-01-19: 0 tests</title></rect>
<rect x="30" y="50" width="12" height="12" fill="#2c2e31" rx="2"><title>2026-01-20: 0 tests</title></rect>
<rect x="30" y="65" width="12" height="12" fill="#665c27" rx="2"><title>2026-01-21: 3 tests</title></rect>
<rect x="30" y="80" width="12" height="12" fill="#998a2f" rx="2"><title>2026-01-22: 8 tests</title></rect>
<rect x="30" y="95" width="12" height="12" fill="#2c2e31" rx="2"><title>2026-01-23: 0 tests</title></rect>
<rect x="30" y="110" width="12" height="12" fill="#2c2e31" rx="2"><title>2026-01-24: 0 tests</title></rect>
<rect x="45" y="20" width="12" height="12" fill="#2c2e31" rx="2"><title>2026-01-25: 0 tests</title></rect>
<rect x="45" y="35" width="12" height="12" fill="#2c2e31" rx="2"><title>2026-01-26: 0 tests</title></rect>
<rect x="45" y="50" width="12" height="12" fill="#2c2e31" rx="2"><title>2026-01-27: 0 tests</title></rect>
<rect x="45" y="65" width="12" height="12" fill="#2c2e31" rx="2"><title>2026-01-28: 0 tests</title></rect>
<rect x="45" y="80" width="12" height="12" fill="#2c2e31" rx="2"><title>2026-01-29: 0 tests</title></rect>
<rect x="45" y="95" width="12" height="12" fill="#2c2e31" rx="2"><title>2026-01-30: 0 tests</title></rect>
<rect x="45" y="110" width="12" height="12" fill="#2c2e31" rx="2"><title>2026-01-31: 0 tests</title></rect>
<text x="60" y="15" fill="#646669">Feb</text>
<rect x="60" y="20" width="12" height="12" fill="#2c2e31" rx="2"><title>2026-02-01: 0 tests</title></rect>
<rect x="60" y="35" width="12" height="12" fill="#2c2e31" rx="2"><title>2026-02-02: 0 tests</title></rect>
<rect x="60" y="50" width="12" height="12" fill="#2c2e31" rx="2"><title>2026-02-03: 0 tests</title></rect>
<rect x="60" y="65" width="12" height="12" fill="#2c2e31" rx="2"><title>2026-02-04: 0 tests</title></rect>
<rect x="60" y="80" width="12" height="12" fill="#2c2e31" rx="2"><title>2026-02-05: 0 tests</title></rect>
<rect x="60" y="95" width="12" height="12" fill="#2c2e31" rx="2"><title>2026-02-06: 0 tests</title></rect>
<rect x="60" y="110" width="12" height="12" fill="#2c2e31" rx="2"><title>2026-02-07: 0 tests</title></rect>
<rect x="75" y="20" width="12" height="12" fill="#2c2e31" rx="2"><title>2026-02-08: 0 tests</title></rect>
<rect x="75" y="35" width="12" height="12" fill="#2c2e31" rx="2"><title>2026-02-09: 0 tests</title></rect>
<rect x="75" y="50" width="12" height="12" fill="#2c2e31" rx="2"><title>2026-02-10: 0 tests</title></rect>
<rect x="75" y="65" width="12" height="12" fill="#2c2e31" rx="2"><title>2026-02-11: 0 tests</title></rect>
<rect x="75" y="80" width="12" height="12" fill="#2c2e31" rx="2"><title>2026-02-12: 0 tests</title></rect>
<rect x="75" y="95" width="12" height="12" fill="#2c2e31" rx="2"><title>2026-02-13: 0 tests</title></rect>
<rect x="75" y="110" width="12" height="12" fill="#2c2e31" rx="2"><title>2026-02-14: 0 tests</title></rect>
<rect x="90" y="20" width="12" height="12" fill="#2c2e31" rx="2"><title>2026-02-15: 0 tests</title></rect>
<rect x="90" y="35" width="12" height="12" fill="#2c2e31" rx="2"><title>2026-02-16: 0 tests</title></rect>
<rect x="90" y="50" width="12" height="12" fill="#2c2e31" rx="2"><title>2026-02-17: 0 tests</title></rect>
<rect x="90" y="65" width="12" height="12" fill="#2c2e31" rx="2"><title>2026-02-18: 0 tests</title></rect>
<rect x="90" y="80" width="12" height="12" fill="#2c2e31" rx="2"><title>2026-02-19: 0 tests</title></rect>
<rect x="90" y="95" width="12" height="12" fill="#2c2e31" rx="2"><title>2026-02-20: 0 tests</title></rect>
<rect x="90" y="110" width="12" height="12" fill="#2c2e31" rx="2"><title>2026-02-21: 0 tests</title></rect>
<rect x="105" y="20" width="12" height="12" fill="#2c2e31" rx="2"><title>2026-02-22: 0 tests</title></rect>
<rect x="105" y="35" width="12" height="12" fill="#665c27" rx="2"><title>2026-02-23: 3 tests</title></rect>
<rect x="105" y="50" width="12" height="12" fill="#665c27" rx="2"><title>2026-02-24: 5 tests</title></rect>
<rect x="105" y="65" width="12" height="12" fill="#665c27" rx="2"><title>2026-02-25: 1 tests</title></rect>
<rect x="105" y="80" width="12" height="12" fill="#2c2e31" rx="2"><title>2026-02-26: 0 tests</title></rect>
<rect x="105" y="95" width="12" height="12" fill="#2c2e31" rx="2"><title>2026-02-27: 0 tests</title></rect>
<rect x="105" y="110" width="12" height="12" fill="#2c2e31" rx="2"><title>2026-02-28: 0 tests</title></rect>
<text x="120" y="15" fill="#646669">Mar</text>
<rect x="120" y="20" width="12" height="12" fill="#2c2e31" rx="2"><title>2026-03-01: 0 tests</title></rect>
<rect x="120" y="35" width="12" height="12" fill="#2c2e31" rx="2"><title>2026-03-02: 0 tests</title></rect>
<rect x="120" y="50" width="12" height="12" fill="#2c2e31" rx="2"><title>2026-03-03: 0 tests</title></rect>
<rect x="120" y="65" width="12" height="12" fill="#2c2e31" rx="2"><title>2026-03-04: 0 tests</title></rect>
<rect x="120" y="80" width="12" height="12" fill="#2c2e31" rx="2"><title>2026-03-05: 0 tests</title></rect>
<rect x="120" y="95" width="12" height="12" fill="#2c2e31" rx="2"><title>2026-03-06: 0 tests</title></rect>
<rect x="120" y="110" width="12" height="12" fill="#2c2e31" rx="2"><title>2026-03-07: 0 tests</title></rect>
<rect x="135" y="20" width="12" height="12" fill="#2c2e31" rx="2"><title>2026-03-08: 0 tests</title></rect>
<rect x="135" y="35" width="12" height="12" fill="#2c2e31" rx="2"><title>2026-03-09: 0 tests</title></rect>
<rect x="135" y="50" width="12" height="12" fill="#2c2e31" rx="2"><title>2026-03-10: 0 tests</title></rect>
<rect x="135" y="65" width="12" height="12" fill="#2c2e31" rx="2"><title>2026-03-11: 0 tests</title></rect>
<rect x="135" y="80" width="12" height="12" fill="#2c2e31" rx="2"><title>2026-03-12: 0 tests</title></rect>
<rect x="135" y="95" width="12" height="12" fill="#2c2e31" rx="2"><title>2026-03-13: 0 tests</title></rect>
<rect x="135" y="110" width="12" height="12" fill="#2c2e31" rx="2"><title>2026-03-14: 0 tests</title></rect>
<rect x="150" y="20" width="12" height="12" fill="#2c2e31" rx="2"><title>2026-03-15: 0 tests</title></rect>
<rect x="150" y="35" width="12" height="12" fill="#2c2e31" rx="2"><title>2026-03-16: 0 tests</title></rect>
<rect x="150" y="50" width="12" height="12" fill="#2c2e31" rx="2"><title>2026-03-17: 0 tests</title></rect>
<rect x="150" y="65" width="12" height="12" fill="#2c2e31" rx="2"><title>2026-03-18: 0 tests</title></rect>
<rect x="150" y="80" width="12" height="12" fill="#2c2e31" rx="2"><title>2026-03-19: 0 tests</title></rect>
<rect x="150" y="95" width="12" height="12" fill="#2c2e31" rx="2"><title>2026-03-20: 0 tests</title></rect>
<rect x="150" y="110" width="12" height="12" fill="#2c2e31" rx="2"><title>2026-03-21: 0 tests</title></rect>
<rect x="165" y="20" width="12" height="12" fill="#2c2e31" rx="2"><title>2026-03-22: 0 tests</title></rect>
<rect x="165" y="35" width="12" height="12" fill="#2c2e31" rx="2"><title>2026-03-23: 0 tests</title></rect>
<rect x="165" y="50" width="12" height="12" fill="#2c2e31" rx="2"><title>2026-03-24: 0 tests</title></rect>
<rect x="165" y="65" width="12" height="12" fill="#2c2e31" rx="2"><title>2026-03-25: 0 tests</title></rect>
<rect x="165" y="80" width="12" height="12" fill="#2c2e31" rx="2"><title>2026-03-26: 0 tests</title></rect>
<rect x="165" y="95" width="12" height="12" fill="#2c2e31" rx="2"><title>2026-03-27: 0 tests</title></rect>
<rect x="165" y="110" width="12" height="12" fill="#2c2e31" rx="2"><title>2026-03-28: 0 tests</title></rect>
<rect x="180" y="20" width="12" height="12" fill="#2c2e31" rx="2"><title>2026-03-29: 0 tests</title></rect>
<rect x="180" y="35" width="12" height="12" fill="#2c2e31" rx="2"><title>2026-03-30: 0 tests</title></rect>
<rect x="180" y="50" width="12" height="12" fill="#2c2e31" rx="2"><title>2026-03-31: 0 tests</title></rect>
<rect x="180" y="65" width="12" height="12" fill="#2c2e31" rx="2"><title>2026-04-01: 0 tests</title></rect>
<rect x="180" y="80" width="12" height="12" fill="#2c2e31" rx="2"><title>2026-04-02: 0 tests</title></rect>
<rect x="180" y="95" width="12" height="12" fill="#2c2e31" rx="2"><title>2026-04-03: 0 tests</title></rect>
<rect x="180" y="110" width="12" height="12" fill="#2c2e31" rx="2"><title>2026-04-04: 0 tests</title></rect>
<text x="195" y="15" fill="#646669">Apr</text>
<rect x="195" y="20" width="12" height="12" fill="#2c2e31" rx="2"><title>2026-04-05: 0 tests</title></rect>
<rect x="195" y="35" width="12" height="12" fill="#2c2e31" rx="2"><title>2026-04-06: 0 tests</title></rect>
<rect x="195" y="50" width="12" height="12" fill="#2c2e31" rx="2"><title>2026-04-07: 0 tests</title></rect>
<rect x="195" y="65" width="12" height="12" fill="#2c2e31" rx="2"><title>2026-04-08: 0 tests</title></rect>
<rect x="195" y="80" width="12" height="12" fill="#2c2e31" rx="2"><title>2026-04-09: 0 tests</title></rect>
<rect x="195" y="95" width="12" height="12" fill="#2c2e31" rx="2"><title>2026-04-10: 0 tests</title></rect>
<rect x="195" y="110" width="12" height="12" fill="#2c2e31" rx="2"><title>2026-04-11: 0 tests</title></rect>
<rect x="210" y="20" width="12" height="12" fill="#2c2e31" rx="2"><title>2026-04-12: 0 tests</title></rect>
<rect x="210" y="35" width="12" height="12" fill="#2c2e31" rx="2"><title>2026-04-13: 0 tests</title></rect>
<rect x="210" y="50" width="12" height="12" fill="#2c2e31" rx="2"><title>2026-04-14: 0 tests</title></rect>
<rect x="210" y="65" width="12" height="12" fill="#2c2e31" rx="2"><title>2026-04-15: 0 tests</title></rect>
<rect x="210" y="80" width="12" height="12" fill="#2c2e31" rx="2"><title>2026-04-16: 0 tests</title></rect>
<rect x="210" y="95" width="12" height="12" fill="#2c2e31" rx="2"><title>2026-04-17: 0 tests</title></rect>
<rect x="210" y="110" width="12" height="12" fill="#2c2e31" rx="2"><title>2026-04-18: 0 tests</title></rect>
</svg>