<svg xmlns="http://www.w3.org/2000/svg" width="845" height="145" viewBox="0 0 845 145" style="font-family: sans-serif; font-size: 10px;">
<rect width="100%" height="100%" fill="#323437" rx="8"/>
<text x="5" y="45" fill="#646669">Mon</text>
<text x="5" y="75" fill="#646669">Wed</text>
<text x="5" y="105" fill="#646669">Fri</text>
<text x="30" y="15" fill="#646669">Dec</text>
<rect x="30" y="20" width="12" height="12" fill="#2c2e31" rx="2"><title>2024-12-01: 0 tests</title></rect>
<rect x="30" y="35" width="12" height="12" fill="#2c2e31" rx="2"><title>2024-12-02: 0 tests</title></rect>
<rect x="30" y="50" width="12" height="12" fill="#2c2e31" rx="2"><title>2024-12-03: 0 tests</title></rect>
<rect x="30" y="65" width="12" height="12" fill="#2c2e31" rx="2"><title>2024-12-04: 0 tests</title></rect>
<rect x="30" y="80" width="12" height="12" fill="#2c2e31" rx="2"><title>2024-12-05: 0 tests</title></rect>
<rect x="30" y="95" width="12" height="12" fill="#2c2e31" rx="2"><title>2024-12-06: 0 tests</title></rect>
<rect x="30" y="110" width="12" height="12" fill="#2c2e31" rx="2"><title>2024-12-07: 0 tests</title></rect>
<rect x="45" y="20" width="12" height="12" fill="#2c2e31" rx="2"><title>2024-12-08: 0 tests</title></rect>
<rect x="45" y="35" width="12" height="12" fill="#2c2e31" rx="2"><title>2024-12-09: 0 tests</title></rect>
<rect x="45" y="50" width="12" height="12" fill="#2c2e31" rx="2"><title>2024-12-10: 0 tests</title></rect>
<rect x="45" y="65" width="12" height="12" fill="#2c2e31" rx="2"><title>2024-12-11: 0 tests</title></rect>
<rect x="45" y="80" width="12" height="12" fill="#2c2e31" rx="2"><title>2024-12-12: 0 tests</title></rect>
<rect x="45" y="95" width="12" height="12" fill="#2c2e31" rx="2"><title>2024-12-13: 0 tests</title></rect>
<rect x="45" y="110" width="12" height="12" fill="#2c2e31" rx="2"><title>2024-12-14: 0 tests</title></rect>
<rect x="60" y="20" width="12" height="12" fill="#2c2e31" rx="2"><title>2024-12-15: 0 tests</title></rect>
<rect x="60" y="35" width="12" height="12" fill="#2c2e31" rx="2"><title>2024-12-16: 0 tests</title></rect>
<rect x="60" y="50" width="12" height="12" fill="#2c2e31" rx="2"><title>2024-12-17: 0 tests</title></rect>
<rect x="60" y="65" width="12" height="12" fill="#2c2e31" rx="2"><title>2024-12-18: 0 tests</title></rect>
<rect x="60" y="80" width="12" height="12" fill="#2c2e31" rx="2"><title>2024-12-19: 0 tests</title></rect>
<rect x="60" y="95" width="12" height="12" fill="#2c2e31" rx="2"><title>2024-12-20: 0 tests</title></rect>
<rect x="60" y="110" width="12" height="12" fill="#2c2e31" rx="2"><title>2024-12-21: 0 tests</title></rect>
<rect x="75" y="20" width="12" height="12" fill="#2c2e31" rx="2"><title>2024-12-22: 0 tests</title></rect>
<rect x="75" y="35" width="12" height="12" fill="#2c2e31" rx="2"><title>2024-12-23: 0 tests</title></rect>
<rect x="75" y="50" width="12" height="12" fill="#2c2e31" rx="2"><title>2024-12-24: 0 tests</title></rect>
<rect x="75" y="65" width="12" height="12" fill="#2c2e31" rx="2"><title>2024-12-25: 0 tests</title></rect>
<rect x="75" y="80" width="12" height="12" fill="#2c2e31" rx="2"><title>2024-12-26: 0 tests</title></rect>
<rect x="75" y="95" width="12" height="12" fill="#2c2e31" rx="2"><title>2024-12-27: 0 tests</title></rect>
<rect x="75" y="110" width="12" height="12" fill="#2c2e31" rx="2"><title>2024-12-28: 0 tests</title></rect>
<rect x="90" y="20" width="12" height="12" fill="#2c2e31" rx="2"><title>2024-12-29: 0 tests</title></rect>
<rect x="90" y="35" width="12" height="12" fill="#2c2e31" rx="2"><title>2024-12-30: 0 tests</title></rect>
<rect x="90" y="50" width="12" height="12" fill="#2c2e31" rx="2"><title>2024-12-31: 0 tests</title></rect>
<rect x="90" y="65" width="12" height="12" fill="#2c2e31" rx="2"><title>2025-01-01: 0 tests</title></rect>
<rect x="90" y="80" width="12" height="12" fill="#2c2e31" rx="2"><title>2025-01-02: 0 tests</title></rect>
<rect x="90" y="95" width="12" height="12" fill="#2c2e31" rx="2"><title>2025-01-03: 0 tests</title></rect>
<rect x="90" y="110" width="12" height="12" fill="#2c2e31" rx="2"><title>2025-01-04: 0 tests</title></rect>
<text x="105" y="15" fill="#646669">Jan</text>
<rect x="105" y="20" width="12" height="12" fill="#2c2e31" rx="2"><title>2025-01-05: 0 tests</title></rect>
<rect x="105" y="35" width="12" height="12" fill="#2c2e31" rx="2"><title>2025-01-06: 0 tests</title></rect>
<rect x="105" y="50" width="12" height="12" fill="#2c2e31" rx="2"><title>2025-01-07: 0 tests</title></rect>
<rect x="105" y="65" width="12" height="12" fill="#2c2e31" rx="2"><title>2025-01-08: 0 tests</title></rect>
<rect x="105" y="80" width="12" height="12" fill="#2c2e31" rx="2"><title>2025-01-09: 0 tests</title></rect>
<rect x="105" y="95" width="12" height="12" fill="#2c2e31" rx="2"><title>2025-01-10: 0 tests</title></rect>
<rect x="105" y="110" width="12" height="12" fill="#2c2e31" rx="2"><title>2025-01-11: 0 tests</title></rect>
<rect x="120" y="20" width="12" height="12" fill="#2c2e31" rx="2"><title>2025-01-12: 0 tests</title></rect>
<rect x="120" y="35" width="12" height="12" fill="#2c2e31" rx="2"><title>2025-01-13: 0 tests</title></rect>
<rect x="120" y="50" width="12" height="12" fill="#2c2e31" rx="2"><title>2025-01-14: 0 tests</title></rect>
<rect x="120" y="65" width="12" height="12" fill="#2c2e31" rx="2"><title>2025-01-15: 0 tests</title></rect>
<rect x="120" y="80" width="12" height="12" fill="#2c2e31" rx="2"><title>2025-01-16: 0 tests</title></rect>
<rect x="120" y="95" width="12" height="12" fill="#2c2e31" rx="2"><title>2025-01-17: 0 tests</title></rect>
<rect x="120" y="110" width="12" height="12" fill="#2c2e31" rx="2"><title>2025-01-18: 0 tests</title></rect>
<rect x="135" y="20" width="12" height="12" fill="#2c2e31" rx="2"><title>2025-01-19: 0 tests</title></rect>
<rect x="135" y="35" width="12" height="12" fill="#2c2e31" rx="2"><title>2025-01-20: 0 tests</title></rect>
<rect x="135" y="50" width="12" height="12" fill="#2c2e31" rx="2"><title>2025-01-21: 0 tests</title></rect>
<rect x="135" y="65" width="12" height="12" fill="#2c2e31" rx="2"><title>2025-01-22: 0 tests</title></rect>
<rect x="135" y="80" width="12" height="12" fill="#2c2e31" rx="2"><title>2025-01-23: 0 tests</title></rect>
<rect x="135" y="95" width="12" height="12" fill="#2c2e31" rx="2"><title>2025-01-24: 0 tests</title></rect>
<rect x="135" y="110" width="12" height="12" fill="#2c2e31" rx="2"><title>2025-01-25: 0 tests</title></rect>
<rect x="150" y="20" width="12" height="12" fill="#2c2e31" rx="2"><title>2025-01-26: 0 tests</title></rect>
<rect x="150" y="35" width="12" height="12" fill="#2c2e31" rx="2"><title>2025-01-27: 0 tests</title></rect>
<rect x="150" y="50" width="12" height="12" fill="#2c2e31" rx="2"><title>2025-01-28: 0 tests</title></rect>
<rect x="150" y="65" width="12" height="12" fill="#2c2e31" rx="2"><title>2025-01-29: 0 tests</title></rect>
<rect x="150" y="80" width="12" height="12" fill="#2c2e31" rx="2"><title>2025-01-30: 0 tests</title></rect>
<rect x="150" y="95" width="12" height="12" fill="#2c2e31" rx="2"><title>2025-01-31: 0 tests</title></rect>
<rect x="150" y="110" width="12" height="12" fill="#2c2e31" rx="2"><title>2025-02-01: 0 tests</title></rect>
<text x="165" y="15" fill="#646669">Feb</text>
<rect x="165" y="20" width="12" height="12" fill="#2c2e31" rx="2"><title>2025-02-02: 0 tests</title></rect>
<rect x="165" y="35" width="12" height="12" fill="#2c2e31" rx="2"><title>2025-02-03: 0 tests</title></rect>
<rect x="165" y="50" width="12" height="12" fill="#2c2e31" rx="2"><title>2025-02-04: 0 tests</title></rect>
<rect x="165" y="65" width="12" height="12" fill="#2c2e31" rx="2"><title>2025-02-05: 0 tests</title></rect>
<rect x="165" y="80" width="12" height="12" fill="#2c2e31" rx="2"><title>2025-02-06: 0 tests</title></rect>
<rect x="165" y="95" width="12" height="12" fill="#2c2e31" rx="2"><title>2025-02-07: 0 tests</title></rect>
<rect x="165" y="110" width="12" height="12" fill="#2c2e31" rx="2"><title>2025-02-08: 0 tests</title></rect>
<rect x="180" y="20" width="12" height="12" fill="#2c2e31" rx="2"><title>2025-02-09: 0 tests</title></rect>
<rect x="180" y="35" width="12" height="12" fill="#2c2e31" rx="2"><title>2025-02-10: 0 tests</title></rect>
<rect x="180" y="50" width="12" height="12" fill="#2c2e31" rx="2"><title>2025-02-11: 0 tests</title></rect>
<rect x="180" y="65" width="12" height="12" fill="#2c2e31" rx="2"><title>2025-02-12: 0 tests</title></rect>
<rect x="180" y="80" width="12" height="12" fill="#2c2e31" rx="2"><title>2025-02-13: 0 tests</title></rect>
<rect x="180" y="95" width="12" height="12" fill="#2c2e31" rx="2"><title>2025-02-14: 0 tests</title></rect>
<rect x="180" y="110" width="12" height="12" fill="#2c2e31" rx="2"><title>2025-02-15: 0 tests</title></rect>
<rect x="195" y="20" width="12" height="12" fill="#2c2e31" rx="2"><title>2025-02-16: 0 tests</title></rect>
<rect x="195" y="35" width="12" height="12" fill="#2c2e31" rx="2"><title>2025-02-17: 0 tests</title></rect>
<rect x="195" y="50" width="12" height="12" fill="#2c2e31" rx="2"><title>2025-02-18: 0 tests</title></rect>
<rect x="195" y="65" width="12" height="12" fill="#2c2e31" rx="2"><title>2025-02-19: 0 tests</title></rect>
<rect x="195" y="80" width="12" height="12" fill="#2c2e31" rx="2"><title>2025-02-20: 0 tests</title></rect>
<rect x="195" y="95" width="12" height="12" fill="#2c2e31" rx="2"><title>2025-02-21: 0 tests</title></rect>
<rect x="195" y="110" width="12" height="12" fill="#2c2e31" rx="2"><title>2025-02-22: 0 tests</title></rect>
<rect x="210" y="20" width="12" height="12" fill="#2c2e31" rx="2"><title>2025-02-23: 0 tests</title></rect>
<rect x="210" y="35" width="12" height="12" fill="#2c2e31" rx="2"><title>2025-02-24: 0 tests</title></rect>
<rect x="210" y="50" width="12" height="12" fill="#2c2e31" rx="2"><title>2025-02-25: 0 tests</title></rect>
<rect x="210" y="65" width="12" height="12" fill="#2c2e31" rx="2"><title>2025-02-26: 0 tests</title></rect>
<rect x="210" y="80" width="12" height="12" fill="#2c2e31" rx="2"><title>2025-02-27: 0 tests</title></rect>
<rect x="210" y="95" width="12" height="12" fill="#2c2e31" rx="2"><title>2025-02-28: 0 tests</title></rect>
<rect x="210" y="110" width="12" height="12" fill="#2c2e31" rx="2"><title>2025-03-01: 0 tests</title></rect>
<text x="225" y="15" fill="#646669">Mar</text>
<rect x="225" y="20" width="12" height="12" fill="#2c2e31" rx="2"><title>2025-03-02: 0 tests</title></rect>
<rect x="225" y="35" width="12" height="12" fill="#2c2e31" rx="2"><title>2025-03-03: 0 tests</title></rect>
<rect x="225" y="50" width="12" height="12" fill="#2c2e31" rx="2"><title>2025-03-04: 0 tests</title></rect>
<rect x="225" y="65" width="12" height="12" fill="#2c2e31" rx="2"><title>2025-03-05: 0 tests</title></rect>
<rect x="225" y="80" width="12" height="12" fill="#2c2e31" rx="2"><title>2025-03-06: 0 tests</title></rect>
<rect x="225" y="95" width="12" height="12" fill="#2c2e31" rx="2"><title>2025-03-07: 0 tests</title></rect>
<rect x="225" y="110" width="12" height="12" fill="#2c2e31" rx="2"><title>2025-03-08: 0 tests</title></rect>
<rect x="240" y="20" width="12" height="12" fill="#2c2e31" rx="2"><title>2025-03-09: 0 tests</title></rect>
<rect x="240" y="35" width="12" height="12" fill="#2c2e31" rx="2"><title>2025-03-10: 0 tests</title></rect>
<rect x="240" y="50" width="12" height="12" fill="#2c2e31" rx="2"><title>2025-03-11: 0 tests</title></rect>
<rect x="240" y="65" width="12" height="12" fill="#2c2e31" rx="2"><title>2025-03-12: 0 tests</title></rect>
<rect x="240" y="80" width="12" height="12" fill="#2c2e31" rx="2"><title>2025-03-13: 0 tests</title></rect>
<rect x="240" y="95" width="12" height="12" fill="#2c2e31" rx="2"><title>2025-03-14: 0 tests</title></rect>
<rect x="240" y="110" width="12" height="12" fill="#2c2e31" rx="2"><title>2025-03-15: 0 tests</title></rect>
<rect x="255" y="20" width="12" height="12" fill="#2c2e31" rx="2"><title>2025-03-16: 0 tests</title></rect>
<rect x="255" y="35" width="12" height="12" fill="#2c2e31" rx="2"><title>2025-03-17: 0 tests</title></rect>
<rect x="255" y="50" width="12" height="12" fill="#2c2e31" rx="2"><title>2025-03-18: 0 tests</title></rect>
<rect x="255" y="65" width="12" height="12" fill="#2c2e31" rx="2"><title>2025-03-19: 0 tests</title></rect>
<rect x="255" y="80" width="12" height="12" fill="#2c2e31" rx="2"><title>2025-03-20: 0 tests</title></rect>
<rect x="255" y="95" width="12" height="12" fill="#2c2e31" rx="2"><title>2025-03-21: 0 tests</title></rect>
<rect x="255" y="110" width="12" height="12" fill="#2c2e31" rx="2"><title>2025-03-22: 0 tests</title></rect>
<rect x="270" y="20" width="12" height="12" fill="#2c2e31" rx="2"><title>2025-03-23: 0 tests</title></rect>
<rect x="270" y="35" width="12" height="12" fill="#2c2e31" rx="2"><title>2025-03-24: 0 tests</title></rect>
<rect x="270" y="50" width="12" height="12" fill="#2c2e31" rx="2"><title>2025-03-25: 0 tests</title></rect>
<rect x="270" y="65" width="12" height="12" fill="#2c2e31" rx="2"><title>2025-03-26: 0 tests</title></rect>
<rect x="270" y="80" width="12" height="12" fill="#2c2e31" rx="2"><title>2025-03-27: 0 tests</title></rect>
<rect x="270" y="95" width="12" height="12" fill="#2c2e31" rx="2"><title>2025-03-28: 0 tests</title></rect>
<rect x="270" y="110" width="12" height="12" fill="#2c2e31" rx="2"><title>2025-03-29: 0 tests</title></rect>
<rect x="285" y="20" width="12" height="12" fill="#2c2e31" rx="2"><title>2025-03-30: 0 tests</title></rect>
<rect x="285" y="35" width="12" height="12" fill="#2c2e31" rx="2"><title>2025-03-31: 0 tests</title></rect>
<rect x="285" y="50" width="12" height="12" fill="#2c2e31" rx="2"><title>2025-04-01: 0 tests</title></rect>
<rect x="285" y="65" width="12" height="12" fill="#2c2e31" rx="2"><title>2025-04-02: 0 tests</title></rect>
<rect x="285" y="80" width="12" height="12" fill="#2c2e31" rx="2"><title>2025-04-03: 0 tests</title></rect>
<rect x="285" y="95" width="12" height="12" fill="#2c2e31" rx="2"><title>2025-04-04: 0 tests</title></rect>
<rect x="285" y="110" width="12" height="12" fill="#2c2e31" rx="2"><title>2025-04-05: 0 tests</title></rect>
<text x="300" y="15" fill="#646669">Apr</text>
<rect x="300" y="20" width="12" height="12" fill="#2c2e31" rx="2"><title>2025-04-06: 0 tests</title></rect>
<rect x="300" y="35" width="12" height="12" fill="#2c2e31" rx="2"><title>2025-04-07: 0 tests</title></rect>
<rect x="300" y="50" width="12" height="12" fill="#2c2e31" rx="2"><title>2025-04-08: 0 tests</title></rect>
<rect x="300" y="65" width="12" height="12" fill="#2c2e31" rx="2"><title>2025-04-09: 0 tests</title></rect>
<rect x="300" y="80" width="12" height="12" fill="#2c2e31" rx="2"><title>2025-04-10: 0 tests</title></rect>
<rect x="300" y="95" width="12" height="12" fill="#2c2e31" rx="2"><title>2025-04-11: 0 tests</title></rect>
<rect x="300" y="110" width="12" height="12" fill="#2c2e31" rx="2"><title>2025-04-12: 0 tests</title></rect>
<rect x="315" y="20" width="12" height="12" fill="#2c2e31" rx="2"><title>2025-04-13: 0 tests</title></rect>
<rect x="315" y="35" width="12" height="12" fill="#2c2e31" rx="2"><title>2025-04-14: 0 tests</title></rect>
<rect x="315" y="50" width="12" height="12" fill="#2c2e31" rx="2"><title>2025-04-15: 0 tests</title></rect>
<rect x="315" y="65" width="12" height="12" fill="#2c2e31" rx="2"><title>2025-04-16: 0 tests</title></rect>
<rect x="315" y="80" width="12" height="12" fill="#2c2e31" rx="2"><title>2025-04-17: 0 tests</title></rect>
<rect x="315" y="95" width="12" height="12" fill="#2c2e31" rx="2"><title>2025-04-18: 0 tests</title></rect>
<rect x="315" y="110" width="12" height="12" fill="#2c2e31" rx="2"><title>2025-04-19: 0 tests</title></rect>
<rect x="330" y="20" width="12" height="12" fill="#2c2e31" rx="2"><title>2025-04-20: 0 tests</title></rect>
<rect x="330" y="35" width="12" height="12" fill="#2c2e31" rx="2"><title>2025-04-21: 0 tests</title></rect>
<rect x="330" y="50" width="12" height="12" fill="#2c2e31" rx="2"><title>2025-04-22: 0 tests</title></rect>
<rect x="330" y="65" width="12" height="12" fill="#2c2e31" rx="2"><title>2025-04-23: 0 tests</title></rect>
<rect x="330" y="80" width="12" height="12" fill="#2c2e31" rx="2"><title>2025-04-24: 0 tests</title></rect>
<rect x="330" y="95" width="12" height="12" fill="#2c2e31" rx="2"><title>2025-04-25: 0 tests</title></rect>
<rect x="330" y="110" width="12" height="12" fill="#2c2e31" rx="2"><title>2025-04-26: 0 tests</title></rect>
<rect x="345" y="20" width="12" height="12" fill="#2c2e31" rx="2"><title>2025-04-27: 0 tests</title></rect>
<rect x="345" y="35" width="12" height="12" fill="#2c2e31" rx="2"><title>2025-04-28: 0 tests</title></rect>
<rect x="345" y="50" width="12" height="12" fill="#2c2e31" rx="2"><title>2025-04-29: 0 tests</title></rect>
<rect x="345" y="65" width="12" height="12" fill="#2c2e31" rx="2"><title>2025-04-30: 0 tests</title></rect>
<rect x="345" y="80" width="12" height="12" fill="#2c2e31" rx="2"><title>2025-05-01: 0 tests</title></rect>
<rect x="345" y="95" width="12" height="12" fill="#2c2e31" rx="2"><title>2025-05-02: 0 tests</title></rect>
<rect x="345" y="110" width="12" height="12" fill="#2c2e31" rx="2"><title>2025-05-03: 0 tests</title></rect>
<text x="360" y="15" fill="#646669">May</text>
<rect x="360" y="20" width="12" height="12" fill="#2c2e31" rx="2"><title>2025-05-04: 0 tests</title></rect>
<rect x="360" y="35" width="12" height="12" fill="#2c2e31" rx="2"><title>2025-05-05: 0 tests</title></rect>
<rect x="360" y="50" width="12" height="12" fill="#2c2e31" rx="2"><title>2025-05-06: 0 tests</title></rect>
<rect x="360" y="65" width="12" height="12" fill="#2c2e31" rx="2"><title>2025-05-07: 0 tests</title></rect>
<rect x="360" y="80" width="12" height="12" fill="#2c2e31" rx="2"><title>2025-05-08: 0 tests</title></rect>
<rect x="360" y="95" width="12" height="12" fill="#2c2e31" rx="2"><title>2025-05-09: 0 tests</title></rect>
<rect x="360" y="110" width="12" height="12" fill="#2c2e31" rx="2"><title>2025-05-10: 0 tests</title></rect>
<rect x="375" y="20" width="12" height="12" fill="#2c2e31" rx="2"><title>2025-05-11: 0 tests</title></rect>
<rect x="375" y="35" width="12" height="12" fill="#2c2e31" rx="2"><title>2025-05-12: 0 tests</title></rect>
<rect x="375" y="50" width="12" height="12" fill="#2c2e31" rx="2"><title>2025-05-13: 0 tests</title></rect>
<rect x="375" y="65" width="12" height="12" fill="#2c2e31" rx="2"><title>2025-05-14: 0 tests</title></rect>
<rect x="375" y="80" width="12" height="12" fill="#2c2e31" rx="2"><title>2025-05-15: 0 tests</title></rect>
<rect x="375" y="95" width="12" height="12" fill="#2c2e31" rx="2"><title>2025-05-16: 0 tests</title></rect>
<rect x="375" y="110" width="12" height="12" fill="#2c2e31" rx="2"><title>2025-05-17: 0 tests</title></rect>
<rect x="390" y="20" width="12" height="12" fill="#2c2e31" rx="2"><title>2025-05-18: 0 tests</title></rect>
<rect x="390" y="35" width="12" height="12" fill="#2c2e31" rx="2"><title>2025-05-19: 0 tests</title></rect>
<rect x="390" y="50" width="12" height="12" fill="#2c2e31" rx="2"><title>2025-05-20: 0 tests</title></rect>
<rect x="390" y="65" width="12" height="12" fill="#2c2e31" rx="2"><title>2025-05-21: 0 tests</title></rect>
<rect x="390" y="80" width="12" height="12" fill="#2c2e31" rx="2"><title>2025-05-22: 0 tests</title></rect>
<rect x="390" y="95" width="12" height="12" fill="#2c2e31" rx="2"><title>2025-05-23: 0 tests</title></rect>
<rect x="390" y="110" width="12" height="12" fill="#2c2e31" rx="2"><title>2025-05-24: 0 tests</title></rect>
<rect x="405" y="20" width="12" height="12" fill="#2c2e31" rx="2"><title>2025-05-25: 0 tests</title></rect>
<rect x="405" y="35" width="12" height="12" fill="#2c2e31" rx="2"><title>2025-05-26: 0 tests</title></rect>
<rect x="405" y="50" width="12" height="12" fill="#2c2e31" rx="2"><title>2025-05-27: 0 tests</title></rect>
<rect x="405" y="65" width="12" height="12" fill="#2c2e31" rx="2"><title>2025-05-28: 0 tests</title></rect>
<rect x="405" y="80" width="12" height="12" fill="#2c2e31" rx="2"><title>2025-05-29: 0 tests</title></rect>
<rect x="405" y="95" width="12" height="12" fill="#2c2e31" rx="2"><title>2025-05-30: 0 tests</title></rect>
<rect x="405" y="110" width="12" height="12" fill="#2c2e31" rx="2"><title>2025-05-31: 0 tests</title></rect>
<text x="420" y="15" fill="#646669">Jun</text>
<rect x="420" y="20" width="12" height="12" fill="#2c2e31" rx="2"><title>2025-06-01: 0 tests</title></rect>
<rect x="420" y="35" width="12" height="12" fill="#2c2e31" rx="2"><title>2025-06-02: 0 tests</title></rect>
<rect x="420" y="50" width="12" height="12" fill="#2c2e31" rx="2"><title>2025-06-03: 0 tests</title></rect>
<rect x="420" y="65" width="12" height="12" fill="#2c2e31" rx="2"><title>2025-06-04: 0 tests</title></rect>
<rect x="420" y="80" width="12" height="12" fill="#2c2e31" rx="2"><title>2025-06-05: 0 tests</title></rect>
<rect x="420" y="95" width="12" height="12" fill="#2c2e31" rx="2"><title>2025-06-06: 0 tests</title></rect>
<rect x="420" y="110" width="12" height="12" fill="#2c2e31" rx="2"><title>2025-06-07: 0 tests</title></rect>
<rect x="435" y="20" width="12" height="12" fill="#2c2e31" rx="2"><title>2025-06-08: 0 tests</title></rect>
<rect x="435" y="35" width="12" height="12" fill="#2c2e31" rx="2"><title>2025-06-09: 0 tests</title></rect>
<rect x="435" y="50" width="12" height="12" fill="#2c2e31" rx="2"><title>2025-06-10: 0 tests</title></rect>
<rect x="435" y="65" width="12" height="12" fill="#2c2e31" rx="2"><title>2025-06-11: 0 tests</title></rect>
<rect x="435" y="80" width="12" height="12" fill="#2c2e31" rx="2"><title>2025-06-12: 0 tests</title></rect>
<rect x="435" y="95" width="12" height="12" fill="#2c2e31" rx="2"><title>2025-06-13: 0 tests</title></rect>
<rect x="435" y="110" width="12" height="12" fill="#2c2e31" rx="2"><title>2025-06-14: 0 tests</title></rect>
<rect x="450" y="20" width="12" height="12" fill="#2c2e31" rx="2"><title>2025-06-15: 0 tests</title></rect>
<rect x="450" y="35" width="12" height="12" fill="#2c2e31" rx="2"><title>2025-06-16: 0 tests</title></rect>
<rect x="450" y="50" width="12" height="12" fill="#2c2e31" rx="2"><title>2025-06-17: 0 tests</title></rect>
<rect x="450" y="65" width="12" height="12" fill="#2c2e31" rx="2"><title>2025-06-18: 0 tests</title></rect>
<rect x="450" y="80" width="12" height="12" fill="#2c2e31" rx="2"><title>2025-06-19: 0 tests</title></rect>
<rect x="450" y="95" width="12" height="12" fill="#2c2e31" rx="2"><title>2025-06-20: 0 tests</title></rect>
<rect x="450" y="110" width="12" height="12" fill="#2c2e31" rx="2"><title>2025-06-21: 0 tests</title></rect>
<rect x="465" y="20" width="12" height="12" fill="#2c2e31" rx="2"><title>2025-06-22: 0 tests</title></rect>
<rect x="465" y="35" width="12" height="12" fill="#2c2e31" rx="2"><title>2025-06-23: 0 tests</title></rect>
<rect x="465" y="50" width="12" height="12" fill="#2c2e31" rx="2"><title>2025-06-24: 0 tests</title></rect>
<rect x="465" y="65" width="12" height="12" fill="#2c2e31" rx="2"><title>2025-06-25: 0 tests</title></rect>
<rect x="465" y="80" width="12" height="12" fill="#2c2e31" rx="2"><title>2025-06-26: 0 tests</title></rect>
<rect x="465" y="95" width="12" height="12" fill="#2c2e31" rx="2"><title>2025-06-27: 0 tests</title></rect>
<rect x="465" y="110" width="12" height="12" fill="#2c2e31" rx="2"><title>2025-06-28: 0 tests</title></rect>
<rect x="480" y="20" width="12" height="12" fill="#2c2e31" rx="2"><title>2025-06-29: 0 tests</title></rect>
<rect x="480" y="35" width="12" height="12" fill="#2c2e31" rx="2"><title>2025-06-30: 0 tests</title></rect>
<rect x="480" y="50" width="12" height="12" fill="#2c2e31" rx="2"><title>2025-07-01: 0 tests</title></rect>
<rect x="480" y="65" width="12" height="12" fill="#2c2e31" rx="2"><title>2025-07-02: 0 tests</title></rect>
<rect x="480" y="80" width="12" height="12" fill="#2c2e31" rx="2"><title>2025-07-03: 0 tests</title></rect>
<rect x="480" y="95" width="12" height="12" fill="#2c2e31" rx="2"><title>2025-07-04: 0 tests</title></rect>
<rect x="480" y="110" width="12" height="12" fill="#2c2e31" rx="2"><title>2025-07-05: 0 tests</title></rect>
<text x="495" y="15" fill="#646669">Jul</text>
<rect x="495" y="20" width="12" height="12" fill="#2c2e31" rx="2"><title>2025-07-06: 0 tests</title></rect>
<rect x="495" y="35" width="12" height="12" fill="#2c2e31" rx="2"><title>2025-07-07: 0 tests</title></rect>
<rect x="495" y="50" width="12" height="12" fill="#2c2e31" rx="2"><title>2025-07-08: 0 tests</title></rect>
<rect x="495" y="65" width="12" height="12" fill="#2c2e31" rx="2"><title>2025-07-09: 0 tests</title></rect>
<rect x="495" y="80" width="12" height="12" fill="#2c2e31" rx="2"><title>2025-07-10: 0 tests</title></rect>
<rect x="495" y="95" width="12" height="12" fill="#2c2e31" rx="2"><title>2025-07-11: 0 tests</title></rect>
<rect x="495" y="110" width="12" height="12" fill="#2c2e31" rx="2"><title>2025-07-12: 0 tests</title></rect>
<rect x="510" y="20" width="12" height="12" fill="#2c2e31" rx="2"><title>2025-07-13: 0 tests</title></rect>
<rect x="510" y="35" width="12" height="12" fill="#2c2e31" rx="2"><title>2025-07-14: 0 tests</title></rect>
<rect x="510" y="50" width="12" height="12" fill="#2c2e31" rx="2"><title>2025-07-15: 0 tests</title></rect>
<rect x="510" y="65" width="12" height="12" fill="#2c2e31" rx="2"><title>2025-07-16: 0 tests</title></rect>
<rect x="510" y="80" width="12" height="12" fill="#2c2e31" rx="2"><title>2025-07-17: 0 tests</title></rect>
<rect x="510" y="95" width="12" height="12" fill="#2c2e31" rx="2"><title>2025-07-18: 0 tests</title></rect>
<rect x="510" y="110" width="12" height="12" fill="#2c2e31" rx="2"><title>2025-07-19: 0 tests</title></rect>
<rect x="525" y="20" width="12" height="12" fill="#2c2e31" rx="2"><title>2025-07-20: 0 tests</title></rect>
<rect x="525" y="35" width="12" height="12" fill="#2c2e31" rx="2"><title>2025-07-21: 0 tests</title></rect>
<rect x="525" y="50" width="12" height="12" fill="#2c2e31" rx="2"><title>2025-07-22: 0 tests</title></rect>
<rect x="525" y="65" width="12" height="12" fill="#2c2e31" rx="2"><title>2025-07-23: 0 tests</title></rect>
<rect x="525" y="80" width="12" height="12" fill="#2c2e31" rx="2"><title>2025-07-24: 0 tests</title></rect>
<rect x="525" y="95" width="12" height="12" fill="#2c2e31" rx="2"><title>2025-07-25: 0 tests</title></rect>
<rect x="525" y="110" width="12" height="12" fill="#2c2e31" rx="2"><title>2025-07-26: 0 tests</title></rect>
<rect x="540" y="20" width="12" height="12" fill="#2c2e31" rx="2"><title>2025-07-27: 0 tests</title></rect>
<rect x="540" y="35" width="12" height="12" fill="#2c2e31" rx="2"><title>2025-07-28: 0 tests</title></rect>
<rect x="540" y="50" width="12" height="12" fill="#2c2e31" rx="2"><title>2025-07-29: 0 tests</title></rect>
<rect x="540" y="65" width="12" height="12" fill="#2c2e31" rx="2"><title>2025-07-30: 0 tests</title></rect>
<rect x="540" y="80" width="12" height="12" fill="#2c2e31" rx="2"><title>2025-07-31: 0 tests</title></rect>
<rect x="540" y="95" width="12" height="12" fill="#2c2e31" rx="2"><title>2025-08-01: 0 tests</title></rect>
<rect x="540" y="110" width="12" height="12" fill="#2c2e31" rx="2"><title>2025-08-02: 0 tests</title></rect>
<text x="555" y="15" fill="#646669">Aug</text>
<rect x="555" y="20" width="12" height="12" fill="#2c2e31" rx="2"><title>2025-08-03: 0 tests</title></rect>
<rect x="555" y="35" width="12" height="12" fill="#2c2e31" rx="2"><title>2025-08-04: 0 tests</title></rect>
<rect x="555" y="50" width="12" height="12" fill="#2c2e31" rx="2"><title>2025-08-05: 0 tests</title></rect>
<rect x="555" y="65" width="12" height="12" fill="#2c2e31" rx="2"><title>2025-08-06: 0 tests</title></rect>
<rect x="555" y="80" width="12" height="12" fill="#2c2e31" rx="2"><title>2025-08-07: 0 tests</title></rect>
<rect x="555" y="95" width="12" height="12" fill="#2c2e31" rx="2"><title>2025-08-08: 0 tests</title></rect>
<rect x="555" y="110" width="12" height="12" fill="#2c2e31" rx="2"><title>2025-08-09: 0 tests</title></rect>
<rect x="570" y="20" width="12" height="12" fill="#2c2e31" rx="2"><title>2025-08-10: 0 tests</title></rect>
<rect x="570" y="35" width="12" height="12" fill="#2c2e31" rx="2"><title>2025-08-11: 0 tests</title></rect>
<rect x="570" y="50" width="12" height="12" fill="#2c2e31" rx="2"><title>2025-08-12: 0 tests</title></rect>
<rect x="570" y="65" width="12" height="12" fill="#2c2e31" rx="2"><title>2025-08-13: 0 tests</title></rect>
<rect x="570" y="80" width="12" height="12" fill="#2c2e31" rx="2"><title>2025-08-14: 0 tests</title></rect>
<rect x="570" y="95" width="12" height="12" fill="#2c2e31" rx="2"><title>2025-08-15: 0 tests</title></rect>
<rect x="570" y="110" width="12" height="12" fill="#2c2e31" rx="2"><title>2025-08-16: 0 tests</title></rect>
<rect x="585" y="20" width="12" height="12" fill="#2c2e31" rx="2"><title>2025-08-17: 0 tests</title></rect>
<rect x="585" y="35" width="12" height="12" fill="#2c2e31" rx="2"><title>2025-08-18: 0 tests</title></rect>
<rect x="585" y="50" width="12" height="12" fill="#2c2e31" rx="2"><title>2025-08-19: 0 tests</title></rect>
<rect x="585" y="65" width="12" height="12" fill="#2c2e31" rx="2"><title>2025-08-20: 0 tests</title></rect>
<rect x="585" y="80" width="12" height="12" fill="#2c2e31" rx="2"><title>2025-08-21: 0 tests</title></rect>
<rect x="585" y="95" width="12" height="12" fill="#2c2e31" rx="2"><title>2025-08-22: 0 tests</title></rect>
<rect x="585" y="110" width="12" height="12" fill="#2c2e31" rx="2"><title>2025-08-23: 0 tests</title></rect>
<rect x="600" y="20" width="12" height="12" fill="#2c2e31" rx="2"><title>2025-08-24: 0 tests</title></rect>
<rect x="600" y="35" width="12" height="12" fill="#2c2e31" rx="2"><title>2025-08-25: 0 tests</title></rect>
<rect x="600" y="50" width="12" height="12" fill="#2c2e31" rx="2"><title>2025-08-26: 0 tests</title></rect>
<rect x="600" y="65" width="12" height="12" fill="#2c2e31" rx="2"><title>2025-08-27: 0 tests</title></rect>
<rect x="600" y="80" width="12" height="12" fill="#2c2e31" rx="2"><title>2025-08-28: 0 tests</title></rect>
<rect x="600" y="95" width="12" height="12" fill="#2c2e31" rx="2"><title>2025-08-29: 0 tests</title></rect>
<rect x="600" y="110" width="12" height="12" fill="#2c2e31" rx="2"><title>2025-08-30: 0 tests</title></rect>
<rect x="615" y="20" width="12" height="12" fill="#2c2e31" rx="2"><title>2025-08-31: 0 tests</title></rect>
<rect x="615" y="35" width="12" height="12" fill="#2c2e31" rx="2"><title>2025-09-01: 0 tests</title></rect>
<rect x="615" y="50" width="12" height="12" fill="#2c2e31" rx="2"><title>2025-09-02: 0 tests</title></rect>
<rect x="615" y="65" width="12" height="12" fill="#2c2e31" rx="2"><title>2025-09-03: 0 tests</title></rect>
<rect x="615" y="80" width="12" height="12" fill="#2c2e31" rx="2"><title>2025-09-04: 0 tests</title></rect>
<rect x="615" y="95" width="12" height="12" fill="#2c2e31" rx="2"><title>2025-09-05: 0 tests</title></rect>
<rect x="615" y="110" width="12" height="12" fill="#2c2e31" rx="2"><title>2025-09-06: 0 tests</title></rect>
<text x="630" y="15" fill="#646669">Sep</text>
<rect x="630" y="20" width="12" height="12" fill="#2c2e31" rx="2"><title>2025-09-07: 0 tests</title></rect>
<rect x="630" y="35" width="12" height="12" fill="#2c2e31" rx="2"><title>2025-09-08: 0 tests</title></rect>
<rect x="630" y="50" width="12" height="12" fill="#2c2e31" rx="2"><title>2025-09-09: 0 tests</title></rect>
<rect x="630" y="65" width="12" height="12" fill="#2c2e31" rx="2"><title>2025-09-10: 0 tests</title></rect>
<rect x="630" y="80" width="12" height="12" fill="#2c2e31" rx="2"><title>2025-09-11: 0 tests</title></rect>
<rect x="630" y="95" width="12" height="12" fill="#2c2e31" rx="2"><title>2025-09-12: 0 tests</title></rect>
<rect x="630" y="110" width="12" height="12" fill="#2c2e31" rx="2"><title>2025-09-13: 0 tests</title></rect>
<rect x="645" y="20" width="12" height="12" fill="#2c2e31" rx="2"><title>2025-09-14: 0 tests</title></rect>
<rect x="645" y="35" width="12" height="12" fill="#2c2e31" rx="2"><title>2025-09-15: 0 tests</title></rect>
<rect x="645" y="50" width="12" height="12" fill="#2c2e31" rx="2"><title>2025-09-16: 0 tests</title></rect>
<rect x="645" y="65" width="12" height="12" fill="#2c2e31" rx="2"><title>2025-09-17: 0 tests</title></rect>
<rect x="645" y="80" width="12" height="12" fill="#2c2e31" rx="2"><title>2025-09-18: 0 tests</title></rect>
<rect x="645" y="95" width="12" height="12" fill="#2c2e31" rx="2"><title>2025-09-19: 0 tests</title></rect>
<rect x="645" y="110" width="12" height="12" fill="#2c2e31" rx="2"><title>2025-09-20: 0 tests</title></rect>
<rect x="660" y="20" width="12" height="12" fill="#2c2e31" rx="2"><title>2025-09-21: 0 tests</title></rect>
<rect x="660" y="35" width="12" height="12" fill="#2c2e31" rx="2"><title>2025-09-22: 0 tests</title></rect>
<rect x="660" y="50" width="12" height="12" fill="#2c2e31" rx="2"><title>2025-09-23: 0 tests</title></rect>
<rect x="660" y="65" width="12" height="12" fill="#2c2e31" rx="2"><title>2025-09-24: 0 tests</title></rect>
<rect x="660" y="80" width="12" height="12" fill="#2c2e31" rx="2"><title>2025-09-25: 0 tests</title></rect>
<rect x="660" y="95" width="12" height="12" fill="#2c2e31" rx="2"><title>2025-09-26: 0 tests</title></rect>
<rect x="660" y="110" width="12" height="12" fill="#2c2e31" rx="2"><title>2025-09-27: 0 tests</title></rect>
<rect x="675" y="20" width="12" height="12" fill="#2c2e31" rx="2"><title>2025-09-28: 0 tests</title></rect>
<rect x="675" y="35" width="12" height="12" fill="#2c2e31" rx="2"><title>2025-09-29: 0 tests</title></rect>
<rect x="675" y="50" width="12" height="12" fill="#2c2e31" rx="2"><title>2025-09-30: 0 tests</title></rect>
<rect x="675" y="65" width="12" height="12" fill="#2c2e31" rx="2"><title>2025-10-01: 0 tests</title></rect>
<rect x="675" y="80" width="12" height="12" fill="#2c2e31" rx="2"><title>2025-10-02: 0 tests</title></rect>
<rect x="675" y="95" width="12" height="12" fill="#2c2e31" rx="2"><title>2025-10-03: 0 tests</title></rect>
<rect x="675" y="110" width="12" height="12" fill="#2c2e31" rx="2"><title>2025-10-04: 0 tests</title></rect>
<text x="690" y="15" fill="#646669">Oct</text>
<rect x="690" y="20" width="12" height="12" fill="#2c2e31" rx="2"><title>2025-10-05: 0 tests</title></rect>
<rect x="690" y="35" width="12" height="12" fill="#2c2e31" rx="2"><title>2025-10-06: 0 tests</title></rect>
<rect x="690" y="50" width="12" height="12" fill="#2c2e31" rx="2"><title>2025-10-07: 0 tests</title></rect>
<rect x="690" y="65" width="12" height="12" fill="#2c2e31" rx="2"><title>2025-10-08: 0 tests</title></rect>
<rect x="690" y="80" width="12" height="12" fill="#2c2e31" rx="2"><title>2025-10-09: 0 tests</title></rect>
<rect x="690" y="95" width="12" height="12" fill="#2c2e31" rx="2"><title>2025-10-10: 0 tests</title></rect>
<rect x="690" y="110" width="12" height="12" fill="#2c2e31" rx="2"><title>2025-10-11: 0 tests</title></rect>
<rect x="705" y="20" width="12" height="12" fill="#2c2e31" rx="2"><title>2025-10-12: 0 tests</title></rect>
<rect x="705" y="35" width="12" height="12" fill="#2c2e31" rx="2"><title>2025-10-13: 0 tests</title></rect>
<rect x="705" y="50" width="12" height="12" fill="#2c2e31" rx="2"><title>2025-10-14: 0 tests</title></rect>
<rect x="705" y="65" width="12" height="12" fill="#2c2e31" rx="2"><title>2025-10-15: 0 tests</title></rect>
<rect x="705" y="80" width="12" height="12" fill="#2c2e31" rx="2"><title>2025-10-16: 0 tests</title></rect>
<rect x="705" y="95" width="12" height="12" fill="#2c2e31" rx="2"><title>2025-10-17: 0 tests</title></rect>
<rect x="705" y="110" width="12" height="12" fill="#2c2e31" rx="2"><title>2025-10-18: 0 tests</title></rect>
<rect x="720" y="20" width="12" height="12" fill="#2c2e31" rx="2"><title>2025-10-19: 0 tests</title></rect>
<rect x="720" y="35" width="12" height="12" fill="#2c2e31" rx="2"><title>2025-10-20: 0 tests</title></rect>
<rect x="720" y="50" width="12" height="12" fill="#2c2e31" rx="2"><title>2025-10-21: 0 tests</title></rect>
<rect x="720" y="65" width="12" height="12" fill="#2c2e31" rx="2"><title>2025-10-22: 0 tests</title></rect>
<rect x="720" y="80" width="12" height="12" fill="#2c2e31" rx="2"><title>2025-10-23: 0 tests</title></rect>
<rect x="720" y="95" width="12" height="12" fill="#2c2e31" rx="2"><title>2025-10-24: 0 tests</title></rect>
<rect x="720" y="110" width="12" height="12" fill="#2c2e31" rx="2"><title>2025-10-25: 0 tests</title></rect>
<rect x="735" y="20" width="12" height="12" fill="#2c2e31" rx="2"><title>2025-10-26: 0 tests</title></rect>
<rect x="735" y="35" width="12" height="12" fill="#2c2e31" rx="2"><title>2025-10-27: 0 tests</title></rect>
<rect x="735" y="50" width="12" height="12" fill="#2c2e31" rx="2"><title>2025-10-28: 0 tests</title></rect>
<rect x="735" y="65" width="12" height="12" fill="#2c2e31" rx="2"><title>2025-10-29: 0 tests</title></rect>
<rect x="735" y="80" width="12" height="12" fill="#2c2e31" rx="2"><title>2025-10-30: 0 tests</title></rect>
<rect x="735" y="95" width="12" height="12" fill="#2c2e31" rx="2"><title>2025-10-31: 0 tests</title></rect>
<rect x="735" y="110" width="12" height="12" fill="#2c2e31" rx="2"><title>2025-11-01: 0 tests</title></rect>
<text x="750" y="15" fill="#646669">Nov</text>
<rect x="750" y="20" width="12" height="12" fill="#2c2e31" rx="2"><title>2025-11-02: 0 tests</title></rect>
<rect x="750" y="35" width="12" height="12" fill="#2c2e31" rx="2"><title>2025-11-03: 0 tests</title></rect>
<rect x="750" y="50" width="12" height="12" fill="#2c2e31" rx="2"><title>2025-11-04: 0 tests</title></rect>
<rect x="750" y="65" width="12" height="12" fill="#2c2e31" rx="2"><title>2025-11-05: 0 tests</title></rect>
<rect x="750" y="80" width="12" height="12" fill="#2c2e31" rx="2"><title>2025-11-06: 0 tests</title></rect>
<rect x="750" y="95" width="12" height="12" fill="#2c2e31" rx="2"><title>2025-11-07: 0 tests</title></rect>
<rect x="750" y="110" width="12" height="12" fill="#2c2e31" rx="2"><title>2025-11-08: 0 tests</title></rect>
<rect x="765" y="20" width="12" height="12" fill="#2c2e31" rx="2"><title>2025-11-09: 0 tests</title></rect>
<rect x="765" y="35" width="12" height="12" fill="#2c2e31" rx="2"><title>2025-11-10: 0 tests</title></rect>
<rect x="765" y="50" width="12" height="12" fill="#2c2e31" rx="2"><title>2025-11-11: 0 tests</title></rect>
<rect x="765" y="65" width="12" height="12" fill="#2c2e31" rx="2"><title>2025-11-12: 0 tests</title></rect>
<rect x="765" y="80" width="12" height="12" fill="#2c2e31" rx="2"><title>2025-11-13: 0 tests</title></rect>
<rect x="765" y="95" width="12" height="12" fill="#2c2e31" rx="2"><title>2025-11-14: 0 tests</title></rect>
<rect x="765" y="110" width="12" height="12" fill="#2c2e31" rx="2"><title>2025-11-15: 0 tests</title></rect>
<rect x="780" y="20" width="12" height="12" fill="#2c2e31" rx="2"><title>2025-11-16: 0 tests</title></rect>
<rect x="780" y="35" width="12" height="12" fill="#2c2e31" rx="2"><title>2025-11-17: 0 tests</title></rect>
<rect x="780" y="50" width="12" height="12" fill="#2c2e31" rx="2"><title>2025-11-18: 0 tests</title></rect>
<rect x="780" y="65" width="12" height="12" fill="#2c2e31" rx="2"><title>2025-11-19: 0 tests</title></rect>
<rect x="780" y="80" width="12" height="12" fill="#2c2e31" rx="2"><title>2025-11-20: 0 tests</title></rect>
<rect x="780" y="95" width="12" height="12" fill="#2c2e31" rx="2"><title>2025-11-21: 0 tests</title></rect>
<rect x="780" y="110" width="12" height="12" fill="#2c2e31" rx="2"><title>2025-11-22: 0 tests</title></rect>
<rect x="795" y="20" width="12" height="12" fill="#2c2e31" rx="2"><title>2025-11-23: 0 tests</title></rect>
<rect x="795" y="35" width="12" height="12" fill="#2c2e31" rx="2"><title>2025-11-24: 0 tests</title></rect>
<rect x="795" y="50" width="12" height="12" fill="#2c2e31" rx="2"><title>2025-11-25: 0 tests</title></rect>
<rect x="795" y="65" width="12" height="12" fill="#2c2e31" rx="2"><title>2025-11-26: 0 tests</title></rect>
<rect x="795" y="80" width="12" height="12" fill="#2c2e31" rx="2"><title>2025-11-27: 0 tests</title></rect>
<rect x="795" y="95" width="12" height="12" fill="#2c2e31" rx="2"><title>2025-11-28: 0 tests</title></rect>
<rect x="795" y="110" width="12" height="12" fill="#005a5a" rx="2"><title>2025-11-29: 4 tests</title></rect>
<rect x="810" y="20" width="12" height="12" fill="#00b9b9" rx="2"><title>2025-11-30: 17 tests</title></rect>
<rect x="810" y="35" width="12" height="12" fill="#2c2e31" rx="2"><title>2025-12-01: 0 tests</title></rect>
<rect x="810" y="50" width="12" height="12" fill="#008888" rx="2"><title>2025-12-02: 8 tests</title></rect>
<rect x="810" y="65" width="12" height="12" fill="#005a5a" rx="2"><title>2025-12-03: 1 tests</title></rect>
<rect x="810" y="80" width="12" height="12" fill="#008888" rx="2"><title>2025-12-04: 11 tests</title></rect>
<rect x="810" y="95" width="12" height="12" fill="#2c2e31" rx="2"><title>2025-12-05: 0 tests</title></rect>
</svg>