<svg xmlns="http://www.w3.org/2000/svg" width="815" height="125" viewBox="0 0 815 125">
<rect width="100%" height="100%" fill="#323437" rx="8"/>
<rect x="10" y="10" width="12" height="12" fill="#2c2e31" rx="2" />
<rect x="10" y="25" width="12" height="12" fill="#2c2e31" rx="2" />
<rect x="10" y="40" width="12" height="12" fill="#2c2e31" rx="2" />
<rect x="10" y="55" width="12" height="12" fill="#2c2e31" rx="2" />
<rect x="10" y="70" width="12" height="12" fill="#2c2e31" rx="2" />
<rect x="10" y="85" width="12" height="12" fill="#2c2e31" rx="2" />
<rect x="10" y="100" width="12" height="12" fill="#2c2e31" rx="2" />
<rect x="25" y="10" width="12" height="12" fill="#2c2e31" rx="2" />
<rect x="25" y="25" width="12" height="12" fill="#2c2e31" rx="2" />
<rect x="25" y="40" width="12" height="12" fill="#2c2e31" rx="2" />
<rect x="25" y="55" width="12" height="12" fill="#2c2e31" rx="2" />
<rect x="25" y="70" width="12" height="12" fill="#2c2e31" rx="2" />
<rect x="25" y="85" width="12" height="12" fill="#2c2e31" rx="2" />
<rect x="25" y="100" width="12" height="12" fill="#2c2e31" rx="2" />
<rect x="40" y="10" width="12" height="12" fill="#2c2e31" rx="2" />
<rect x="40" y="25" width="12" height="12" fill="#2c2e31" rx="2" />
<rect x="40" y="40" width="12" height="12" fill="#2c2e31" rx="2" />
<rect x="40" y="55" width="12" height="12" fill="#2c2e31" rx="2" />
<rect x="40" y="70" width="12" height="12" fill="#2c2e31" rx="2" />
<rect x="40" y="85" width="12" height="12" fill="#2c2e31" rx="2" />
<rect x="40" y="100" width="12" height="12" fill="#2c2e31" rx="2" />
<rect x="55" y="10" width="12" height="12" fill="#2c2e31" rx="2" />
<rect x="55" y="25" width="12" height="12" fill="#2c2e31" rx="2" />
<rect x="55" y="40" width="12" height="12" fill="#2c2e31" rx="2" />
<rect x="55" y="55" width="12" height="12" fill="#2c2e31" rx="2" />
<rect x="55" y="70" width="12" height="12" fill="#2c2e31" rx="2" />
<rect x="55" y="85" width="12" height="12" fill="#2c2e31" rx="2" />
<rect x="55" y="100" width="12" height="12" fill="#2c2e31" rx="2" />
<rect x="70" y="10" width="12" height="12" fill="#2c2e31" rx="2" />
<rect x="70" y="25" width="12" height="12" fill="#2c2e31" rx="2" />
<rect x="70" y="40" width="12" height="12" fill="#2c2e31" rx="2" />
<rect x="70" y="55" width="12" height="12" fill="#2c2e31" rx="2" />
<rect x="70" y="70" width="12" height="12" fill="#2c2e31" rx="2" />
<rect x="70" y="85" width="12" height="12" fill="#2c2e31" rx="2" />
<rect x="70" y="100" width="12" height="12" fill="#2c2e31" rx="2" />
<rect x="85" y="10" width="12" height="12" fill="#2c2e31" rx="2" />
<rect x="85" y="25" width="12" height="12" fill="#2c2e31" rx="2" />
<rect x="85" y="40" width="12" height="12" fill="#2c2e31" rx="2" />
<rect x="85" y="55" width="12" height="12" fill="#2c2e31" rx="2" />
<rect x="85" y="70" width="12" height="12" fill="#2c2e31" rx="2" />
<rect x="85" y="85" width="12" height="12" fill="#2c2e31" rx="2" />
<rect x="85" y="100" width="12" height="12" fill="#2c2e31" rx="2" />
<rect x="100" y="10" width="12" height="12" fill="#2c2e31" rx="2" />
<rect x="100" y="25" width="12" height="12" fill="#2c2e31" rx="2" />
<rect x="100" y="40" width="12" height="12" fill="#2c2e31" rx="2" />
<rect x="100" y="55" width="12" height="12" fill="#2c2e31" rx="2" />
<rect x="100" y="70" width="12" height="12" fill="#2c2e31" rx="2" />
<rect x="100" y="85" width="12" height="12" fill="#2c2e31" rx="2" />
<rect x="100" y="100" width="12" height="12" fill="#2c2e31" rx="2" />
<rect x="115" y="10" width="12" height="12" fill="#2c2e31" rx="2" />
<rect x="115" y="25" width="12" height="12" fill="#2c2e31" rx="2" />
<rect x="115" y="40" width="12" height="12" fill="#2c2e31" rx="2" />
<rect x="115" y="55" width="12" height="12" fill="#2c2e31" rx="2" />
<rect x="115" y="70" width="12" height="12" fill="#2c2e31" rx="2" />
<rect x="115" y="85" width="12" height="12" fill="#2c2e31" rx="2" />
<rect x="115" y="100" width="12" height="12" fill="#2c2e31" rx="2" />
<rect x="130" y="10" width="12" height="12" fill="#2c2e31" rx="2" />
<rect x="130" y="25" width="12" height="12" fill="#2c2e31" rx="2" />
<rect x="130" y="40" width="12" height="12" fill="#2c2e31" rx="2" />
<rect x="130" y="55" width="12" height="12" fill="#2c2e31" rx="2" />
<rect x="130" y="70" width="12" height="12" fill="#2c2e31" rx="2" />
<rect x="130" y="85" width="12" height="12" fill="#2c2e31" rx="2" />
<rect x="130" y="100" width="12" height="12" fill="#2c2e31" rx="2" />
<rect x="145" y="10" width="12" height="12" fill="#2c2e31" rx="2" />
<rect x="145" y="25" width="12" height="12" fill="#2c2e31" rx="2" />
<rect x="145" y="40" width="12" height="12" fill="#2c2e31" rx="2" />
<rect x="145" y="55" width="12" height="12" fill="#2c2e31" rx="2" />
<rect x="145" y="70" width="12" height="12" fill="#2c2e31" rx="2" />
<rect x="145" y="85" width="12" height="12" fill="#2c2e31" rx="2" />
<rect x="145" y="100" width="12" height="12" fill="#2c2e31" rx="2" />
<rect x="160" y="10" width="12" height="12" fill="#2c2e31" rx="2" />
<rect x="160" y="25" width="12" height="12" fill="#2c2e31" rx="2" />
<rect x="160" y="40" width="12" height="12" fill="#2c2e31" rx="2" />
<rect x="160" y="55" width="12" height="12" fill="#2c2e31" rx="2" />
<rect x="160" y="70" width="12" height="12" fill="#2c2e31" rx="2" />
<rect x="160" y="85" width="12" height="12" fill="#2c2e31" rx="2" />
<rect x="160" y="100" width="12" height="12" fill="#2c2e31" rx="2" />
<rect x="175" y="10" width="12" height="12" fill="#2c2e31" rx="2" />
<rect x="175" y="25" width="12" height="12" fill="#2c2e31" rx="2" />
<rect x="175" y="40" width="12" height="12" fill="#2c2e31" rx="2" />
<rect x="175" y="55" width="12" height="12" fill="#2c2e31" rx="2" />
<rect x="175" y="70" width="12" height="12" fill="#2c2e31" rx="2" />
<rect x="175" y="85" width="12" height="12" fill="#2c2e31" rx="2" />
<rect x="175" y="100" width="12" height="12" fill="#2c2e31" rx="2" />
<rect x="190" y="10" width="12" height="12" fill="#2c2e31" rx="2" />
<rect x="190" y="25" width="12" height="12" fill="#2c2e31" rx="2" />
<rect x="190" y="40" width="12" height="12" fill="#2c2e31" rx="2" />
<rect x="190" y="55" width="12" height="12" fill="#2c2e31" rx="2" />
<rect x="190" y="70" width="12" height="12" fill="#2c2e31" rx="2" />
<rect x="190" y="85" width="12" height="12" fill="#2c2e31" rx="2" />
<rect x="190" y="100" width="12" height="12" fill="#2c2e31" rx="2" />
<rect x="205" y="10" width="12" height="12" fill="#2c2e31" rx="2" />
<rect x="205" y="25" width="12" height="12" fill="#2c2e31" rx="2" />
<rect x="205" y="40" width="12" height="12" fill="#2c2e31" rx="2" />
<rect x="205" y="55" width="12" height="12" fill="#2c2e31" rx="2" />
<rect x="205" y="70" width="12" height="12" fill="#2c2e31" rx="2" />
<rect x="205" y="85" width="12" height="12" fill="#2c2e31" rx="2" />
<rect x="205" y="100" width="12" height="12" fill="#2c2e31" rx="2" />
<rect x="220" y="10" width="12" height="12" fill="#2c2e31" rx="2" />
<rect x="220" y="25" width="12" height="12" fill="#2c2e31" rx="2" />
<rect x="220" y="40" width="12" height="12" fill="#2c2e31" rx="2" />
<rect x="220" y="55" width="12" height="12" fill="#2c2e31" rx="2" />
<rect x="220" y="70" width="12" height="12" fill="#2c2e31" rx="2" />
<rect x="220" y="85" width="12" height="12" fill="#2c2e31" rx="2" />
<rect x="220" y="100" width="12" height="12" fill="#2c2e31" rx="2" />
<rect x="235" y="10" width="12" height="12" fill="#2c2e31" rx="2" />
<rect x="235" y="25" width="12" height="12" fill="#2c2e31" rx="2" />
<rect x="235" y="40" width="12" height="12" fill="#2c2e31" rx="2" />
<rect x="235" y="55" width="12" height="12" fill="#2c2e31" rx="2" />
<rect x="235" y="70" width="12" height="12" fill="#2c2e31" rx="2" />
<rect x="235" y="85" width="12" height="12" fill="#2c2e31" rx="2" />
<rect x="235" y="100" width="12" height="12" fill="#2c2e31" rx="2" />
<rect x="250" y="10" width="12" height="12" fill="#2c2e31" rx="2" />
<rect x="250" y="25" width="12" height="12" fill="#2c2e31" rx="2" />
<rect x="250" y="40" width="12" height="12" fill="#2c2e31" rx="2" />
<rect x="250" y="55" width="12" height="12" fill="#2c2e31" rx="2" />
<rect x="250" y="70" width="12" height="12" fill="#2c2e31" rx="2" />
<rect x="250" y="85" width="12" height="12" fill="#2c2e31" rx="2" />
<rect x="250" y="100" width="12" height="12" fill="#2c2e31" rx="2" />
<rect x="265" y="10" width="12" height="12" fill="#2c2e31" rx="2" />
<rect x="265" y="25" width="12" height="12" fill="#2c2e31" rx="2" />
<rect x="265" y="40" width="12" height="12" fill="#2c2e31" rx="2" />
<rect x="265" y="55" width="12" height="12" fill="#2c2e31" rx="2" />
<rect x="265" y="70" width="12" height="12" fill="#2c2e31" rx="2" />
<rect x="265" y="85" width="12" height="12" fill="#2c2e31" rx="2" />
<rect x="265" y="100" width="12" height="12" fill="#2c2e31" rx="2" />
<rect x="280" y="10" width="12" height="12" fill="#2c2e31" rx="2" />
<rect x="280" y="25" width="12" height="12" fill="#2c2e31" rx="2" />
<rect x="280" y="40" width="12" height="12" fill="#2c2e31" rx="2" />
<rect x="280" y="55" width="12" height="12" fill="#2c2e31" rx="2" />
<rect x="280" y="70" width="12" height="12" fill="#2c2e31" rx="2" />
<rect x="280" y="85" width="12" height="12" fill="#2c2e31" rx="2" />
<rect x="280" y="100" width="12" height="12" fill="#2c2e31" rx="2" />
<rect x="295" y="10" width="12" height="12" fill="#2c2e31" rx="2" />
<rect x="295" y="25" width="12" height="12" fill="#2c2e31" rx="2" />
<rect x="295" y="40" width="12" height="12" fill="#2c2e31" rx="2" />
<rect x="295" y="55" width="12" height="12" fill="#2c2e31" rx="2" />
<rect x="295" y="70" width="12" height="12" fill="#2c2e31" rx="2" />
<rect x="295" y="85" width="12" height="12" fill="#2c2e31" rx="2" />
<rect x="295" y="100" width="12" height="12" fill="#2c2e31" rx="2" />
<rect x="310" y="10" width="12" height="12" fill="#2c2e31" rx="2" />
<rect x="310" y="25" width="12" height="12" fill="#2c2e31" rx="2" />
<rect x="310" y="40" width="12" height="12" fill="#2c2e31" rx="2" />
<rect x="310" y="55" width="12" height="12" fill="#2c2e31" rx="2" />
<rect x="310" y="70" width="12" height="12" fill="#2c2e31" rx="2" />
<rect x="310" y="85" width="12" height="12" fill="#2c2e31" rx="2" />
<rect x="310" y="100" width="12" height="12" fill="#2c2e31" rx="2" />
<rect x="325" y="10" width="12" height="12" fill="#2c2e31" rx="2" />
<rect x="325" y="25" width="12" height="12" fill="#2c2e31" rx="2" />
<rect x="325" y="40" width="12" height="12" fill="#2c2e31" rx="2" />
<rect x="325" y="55" width="12" height="12" fill="#2c2e31" rx="2" />
<rect x="325" y="70" width="12" height="12" fill="#2c2e31" rx="2" />
<rect x="325" y="85" width="12" height="12" fill="#2c2e31" rx="2" />
<rect x="325" y="100" width="12" height="12" fill="#2c2e31" rx="2" />
<rect x="340" y="10" width="12" height="12" fill="#2c2e31" rx="2" />
<rect x="340" y="25" width="12" height="12" fill="#2c2e31" rx="2" />
<rect x="340" y="40" width="12" height="12" fill="#2c2e31" rx="2" />
<rect x="340" y="55" width="12" height="12" fill="#2c2e31" rx="2" />
<rect x="340" y="70" width="12" height="12" fill="#2c2e31" rx="2" />
<rect x="340" y="85" width="12" height="12" fill="#2c2e31" rx="2" />
<rect x="340" y="100" width="12" height="12" fill="#2c2e31" rx="2" />
<rect x="355" y="10" width="12" height="12" fill="#2c2e31" rx="2" />
<rect x="355" y="25" width="12" height="12" fill="#2c2e31" rx="2" />
<rect x="355" y="40" width="12" height="12" fill="#2c2e31" rx="2" />
<rect x="355" y="55" width="12" height="12" fill="#2c2e31" rx="2" />
<rect x="355" y="70" width="12" height="12" fill="#2c2e31" rx="2" />
<rect x="355" y="85" width="12" height="12" fill="#2c2e31" rx="2" />
<rect x="355" y="100" width="12" height="12" fill="#2c2e31" rx="2" />
<rect x="370" y="10" width="12" height="12" fill="#2c2e31" rx="2" />
<rect x="370" y="25" width="12" height="12" fill="#2c2e31" rx="2" />
<rect x="370" y="40" width="12" height="12" fill="#2c2e31" rx="2" />
<rect x="370" y="55" width="12" height="12" fill="#2c2e31" rx="2" />
<rect x="370" y="70" width="12" height="12" fill="#2c2e31" rx="2" />
<rect x="370" y="85" width="12" height="12" fill="#2c2e31" rx="2" />
<rect x="370" y="100" width="12" height="12" fill="#2c2e31" rx="2" />
<rect x="385" y="10" width="12" height="12" fill="#2c2e31" rx="2" />
<rect x="385" y="25" width="12" height="12" fill="#2c2e31" rx="2" />
<rect x="385" y="40" width="12" height="12" fill="#2c2e31" rx="2" />
<rect x="385" y="55" width="12" height="12" fill="#2c2e31" rx="2" />
<rect x="385" y="70" width="12" height="12" fill="#2c2e31" rx="2" />
<rect x="385" y="85" width="12" height="12" fill="#2c2e31" rx="2" />
<rect x="385" y="100" width="12" height="12" fill="#2c2e31" rx="2" />
<rect x="400" y="10" width="12" height="12" fill="#2c2e31" rx="2" />
<rect x="400" y="25" width="12" height="12" fill="#2c2e31" rx="2" />
<rect x="400" y="40" width="12" height="12" fill="#2c2e31" rx="2" />
<rect x="400" y="55" width="12" height="12" fill="#2c2e31" rx="2" />
<rect x="400" y="70" width="12" height="12" fill="#2c2e31" rx="2" />
<rect x="400" y="85" width="12" height="12" fill="#2c2e31" rx="2" />
<rect x="400" y="100" width="12" height="12" fill="#2c2e31" rx="2" />
<rect x="415" y="10" width="12" height="12" fill="#2c2e31" rx="2" />
<rect x="415" y="25" width="12" height="12" fill="#2c2e31" rx="2" />
<rect x="415" y="40" width="12" height="12" fill="#2c2e31" rx="2" />
<rect x="415" y="55" width="12" height="12" fill="#2c2e31" rx="2" />
<rect x="415" y="70" width="12" height="12" fill="#2c2e31" rx="2" />
<rect x="415" y="85" width="12" height="12" fill="#2c2e31" rx="2" />
<rect x="415" y="100" width="12" height="12" fill="#2c2e31" rx="2" />
<rect x="430" y="10" width="12" height="12" fill="#2c2e31" rx="2" />
<rect x="430" y="25" width="12" height="12" fill="#2c2e31" rx="2" />
<rect x="430" y="40" width="12" height="12" fill="#2c2e31" rx="2" />
<rect x="430" y="55" width="12" height="12" fill="#2c2e31" rx="2" />
<rect x="430" y="70" width="12" height="12" fill="#2c2e31" rx="2" />
<rect x="430" y="85" width="12" height="12" fill="#2c2e31" rx="2" />
<rect x="430" y="100" width="12" height="12" fill="#2c2e31" rx="2" />
<rect x="445" y="10" width="12" height="12" fill="#2c2e31" rx="2" />
<rect x="445" y="25" width="12" height="12" fill="#2c2e31" rx="2" />
<rect x="445" y="40" width="12" height="12" fill="#2c2e31" rx="2" />
<rect x="445" y="55" width="12" height="12" fill="#2c2e31" rx="2" />
<rect x="445" y="70" width="12" height="12" fill="#2c2e31" rx="2" />
<rect x="445" y="85" width="12" height="12" fill="#2c2e31" rx="2" />
<rect x="445" y="100" width="12" height="12" fill="#2c2e31" rx="2" />
<rect x="460" y="10" width="12" height="12" fill="#2c2e31" rx="2" />
<rect x="460" y="25" width="12" height="12" fill="#2c2e31" rx="2" />
<rect x="460" y="40" width="12" height="12" fill="#2c2e31" rx="2" />
<rect x="460" y="55" width="12" height="12" fill="#2c2e31" rx="2" />
<rect x="460" y="70" width="12" height="12" fill="#2c2e31" rx="2" />
<rect x="460" y="85" width="12" height="12" fill="#2c2e31" rx="2" />
<rect x="460" y="100" width="12" height="12" fill="#2c2e31" rx="2" />
<rect x="475" y="10" width="12" height="12" fill="#2c2e31" rx="2" />
<rect x="475" y="25" width="12" height="12" fill="#2c2e31" rx="2" />
<rect x="475" y="40" width="12" height="12" fill="#2c2e31" rx="2" />
<rect x="475" y="55" width="12" height="12" fill="#2c2e31" rx="2" />
<rect x="475" y="70" width="12" height="12" fill="#2c2e31" rx="2" />
<rect x="475" y="85" width="12" height="12" fill="#2c2e31" rx="2" />
<rect x="475" y="100" width="12" height="12" fill="#2c2e31" rx="2" />
<rect x="490" y="10" width="12" height="12" fill="#2c2e31" rx="2" />
<rect x="490" y="25" width="12" height="12" fill="#2c2e31" rx="2" />
<rect x="490" y="40" width="12" height="12" fill="#2c2e31" rx="2" />
<rect x="490" y="55" width="12" height="12" fill="#2c2e31" rx="2" />
<rect x="490" y="70" width="12" height="12" fill="#2c2e31" rx="2" />
<rect x="490" y="85" width="12" height="12" fill="#2c2e31" rx="2" />
<rect x="490" y="100" width="12" height="12" fill="#2c2e31" rx="2" />
<rect x="505" y="10" width="12" height="12" fill="#2c2e31" rx="2" />
<rect x="505" y="25" width="12" height="12" fill="#2c2e31" rx="2" />
<rect x="505" y="40" width="12" height="12" fill="#2c2e31" rx="2" />
<rect x="505" y="55" width="12" height="12" fill="#2c2e31" rx="2" />
<rect x="505" y="70" width="12" height="12" fill="#2c2e31" rx="2" />
<rect x="505" y="85" width="12" height="12" fill="#2c2e31" rx="2" />
<rect x="505" y="100" width="12" height="12" fill="#2c2e31" rx="2" />
<rect x="520" y="10" width="12" height="12" fill="#2c2e31" rx="2" />
<rect x="520" y="25" width="12" height="12" fill="#2c2e31" rx="2" />
<rect x="520" y="40" width="12" height="12" fill="#2c2e31" rx="2" />
<rect x="520" y="55" width="12" height="12" fill="#2c2e31" rx="2" />
<rect x="520" y="70" width="12" height="12" fill="#2c2e31" rx="2" />
<rect x="520" y="85" width="12" height="12" fill="#2c2e31" rx="2" />
<rect x="520" y="100" width="12" height="12" fill="#2c2e31" rx="2" />
<rect x="535" y="10" width="12" height="12" fill="#2c2e31" rx="2" />
<rect x="535" y="25" width="12" height="12" fill="#2c2e31" rx="2" />
<rect x="535" y="40" width="12" height="12" fill="#2c2e31" rx="2" />
<rect x="535" y="55" width="12" height="12" fill="#2c2e31" rx="2" />
<rect x="535" y="70" width="12" height="12" fill="#2c2e31" rx="2" />
<rect x="535" y="85" width="12" height="12" fill="#2c2e31" rx="2" />
<rect x="535" y="100" width="12" height="12" fill="#2c2e31" rx="2" />
<rect x="550" y="10" width="12" height="12" fill="#2c2e31" rx="2" />
<rect x="550" y="25" width="12" height="12" fill="#2c2e31" rx="2" />
<rect x="550" y="40" width="12" height="12" fill="#2c2e31" rx="2" />
<rect x="550" y="55" width="12" height="12" fill="#2c2e31" rx="2" />
<rect x="550" y="70" width="12" height="12" fill="#2c2e31" rx="2" />
<rect x="550" y="85" width="12" height="12" fill="#2c2e31" rx="2" />
<rect x="550" y="100" width="12" height="12" fill="#2c2e31" rx="2" />
<rect x="565" y="10" width="12" height="12" fill="#2c2e31" rx="2" />
<rect x="565" y="25" width="12" height="12" fill="#2c2e31" rx="2" />
<rect x="565" y="40" width="12" height="12" fill="#2c2e31" rx="2" />
<rect x="565" y="55" width="12" height="12" fill="#2c2e31" rx="2" />
<rect x="565" y="70" width="12" height="12" fill="#2c2e31" rx="2" />
<rect x="565" y="85" width="12" height="12" fill="#2c2e31" rx="2" />
<rect x="565" y="100" width="12" height="12" fill="#2c2e31" rx="2" />
<rect x="580" y="10" width="12" height="12" fill="#2c2e31" rx="2" />
<rect x="580" y="25" width="12" height="12" fill="#2c2e31" rx="2" />
<rect x="580" y="40" width="12" height="12" fill="#2c2e31" rx="2" />
<rect x="580" y="55" width="12" height="12" fill="#2c2e31" rx="2" />
<rect x="580" y="70" width="12" height="12" fill="#2c2e31" rx="2" />
<rect x="580" y="85" width="12" height="12" fill="#2c2e31" rx="2" />
<rect x="580" y="100" width="12" height="12" fill="#2c2e31" rx="2" />
<rect x="595" y="10" width="12" height="12" fill="#2c2e31" rx="2" />
<rect x="595" y="25" width="12" height="12" fill="#2c2e31" rx="2" />
<rect x="595" y="40" width="12" height="12" fill="#2c2e31" rx="2" />
<rect x="595" y="55" width="12" height="12" fill="#2c2e31" rx="2" />
<rect x="595" y="70" width="12" height="12" fill="#2c2e31" rx="2" />
<rect x="595" y="85" width="12" height="12" fill="#2c2e31" rx="2" />
<rect x="595" y="100" width="12" height="12" fill="#2c2e31" rx="2" />
<rect x="610" y="10" width="12" height="12" fill="#2c2e31" rx="2" />
<rect x="610" y="25" width="12" height="12" fill="#2c2e31" rx="2" />
<rect x="610" y="40" width="12" height="12" fill="#2c2e31" rx="2" />
<rect x="610" y="55" width="12" height="12" fill="#2c2e31" rx="2" />
<rect x="610" y="70" width="12" height="12" fill="#2c2e31" rx="2" />
<rect x="610" y="85" width="12" height="12" fill="#2c2e31" rx="2" />
<rect x="610" y="100" width="12" height="12" fill="#2c2e31" rx="2" />
<rect x="625" y="10" width="12" height="12" fill="#2c2e31" rx="2" />
<rect x="625" y="25" width="12" height="12" fill="#2c2e31" rx="2" />
<rect x="625" y="40" width="12" height="12" fill="#2c2e31" rx="2" />
<rect x="625" y="55" width="12" height="12" fill="#2c2e31" rx="2" />
<rect x="625" y="70" width="12" height="12" fill="#2c2e31" rx="2" />
<rect x="625" y="85" width="12" height="12" fill="#2c2e31" rx="2" />
<rect x="625" y="100" width="12" height="12" fill="#2c2e31" rx="2" />
<rect x="640" y="10" width="12" height="12" fill="#2c2e31" rx="2" />
<rect x="640" y="25" width="12" height="12" fill="#2c2e31" rx="2" />
<rect x="640" y="40" width="12" height="12" fill="#2c2e31" rx="2" />
<rect x="640" y="55" width="12" height="12" fill="#2c2e31" rx="2" />
<rect x="640" y="70" width="12" height="12" fill="#2c2e31" rx="2" />
<rect x="640" y="85" width="12" height="12" fill="#2c2e31" rx="2" />
<rect x="640" y="100" width="12" height="12" fill="#2c2e31" rx="2" />
<rect x="655" y="10" width="12" height="12" fill="#2c2e31" rx="2" />
<rect x="655" y="25" width="12" height="12" fill="#2c2e31" rx="2" />
<rect x="655" y="40" width="12" height="12" fill="#2c2e31" rx="2" />
<rect x="655" y="55" width="12" height="12" fill="#2c2e31" rx="2" />
<rect x="655" y="70" width="12" height="12" fill="#2c2e31" rx="2" />
<rect x="655" y="85" width="12" height="12" fill="#2c2e31" rx="2" />
<rect x="655" y="100" width="12" height="12" fill="#2c2e31" rx="2" />
<rect x="670" y="10" width="12" height="12" fill="#2c2e31" rx="2" />
<rect x="670" y="25" width="12" height="12" fill="#2c2e31" rx="2" />
<rect x="670" y="40" width="12" height="12" fill="#2c2e31" rx="2" />
<rect x="670" y="55" width="12" height="12" fill="#2c2e31" rx="2" />
<rect x="670" y="70" width="12" height="12" fill="#2c2e31" rx="2" />
<rect x="670" y="85" width="12" height="12" fill="#2c2e31" rx="2" />
<rect x="670" y="100" width="12" height="12" fill="#2c2e31" rx="2" />
<rect x="685" y="10" width="12" height="12" fill="#2c2e31" rx="2" />
<rect x="685" y="25" width="12" height="12" fill="#2c2e31" rx="2" />
<rect x="685" y="40" width="12" height="12" fill="#2c2e31" rx="2" />
<rect x="685" y="55" width="12" height="12" fill="#2c2e31" rx="2" />
<rect x="685" y="70" width="12" height="12" fill="#2c2e31" rx="2" />
<rect x="685" y="85" width="12" height="12" fill="#2c2e31" rx="2" />
<rect x="685" y="100" width="12" height="12" fill="#2c2e31" rx="2" />
<rect x="700" y="10" width="12" height="12" fill="#2c2e31" rx="2" />
<rect x="700" y="25" width="12" height="12" fill="#2c2e31" rx="2" />
<rect x="700" y="40" width="12" height="12" fill="#2c2e31" rx="2" />
<rect x="700" y="55" width="12" height="12" fill="#2c2e31" rx="2" />
<rect x="700" y="70" width="12" height="12" fill="#2c2e31" rx="2" />
<rect x="700" y="85" width="12" height="12" fill="#2c2e31" rx="2" />
<rect x="700" y="100" width="12" height="12" fill="#2c2e31" rx="2" />
<rect x="715" y="10" width="12" height="12" fill="#2c2e31" rx="2" />
<rect x="715" y="25" width="12" height="12" fill="#2c2e31" rx="2" />
<rect x="715" y="40" width="12" height="12" fill="#2c2e31" rx="2" />
<rect x="715" y="55" width="12" height="12" fill="#2c2e31" rx="2" />
<rect x="715" y="70" width="12" height="12" fill="#2c2e31" rx="2" />
<rect x="715" y="85" width="12" height="12" fill="#2c2e31" rx="2" />
<rect x="715" y="100" width="12" height="12" fill="#2c2e31" rx="2" />
<rect x="730" y="10" width="12" height="12" fill="#2c2e31" rx="2" />
<rect x="730" y="25" width="12" height="12" fill="#2c2e31" rx="2" />
<rect x="730" y="40" width="12" height="12" fill="#2c2e31" rx="2" />
<rect x="730" y="55" width="12" height="12" fill="#2c2e31" rx="2" />
<rect x="730" y="70" width="12" height="12" fill="#2c2e31" rx="2" />
<rect x="730" y="85" width="12" height="12" fill="#2c2e31" rx="2" />
<rect x="730" y="100" width="12" height="12" fill="#2c2e31" rx="2" />
<rect x="745" y="10" width="12" height="12" fill="#2c2e31" rx="2" />
<rect x="745" y="25" width="12" height="12" fill="#2c2e31" rx="2" />
<rect x="745" y="40" width="12" height="12" fill="#2c2e31" rx="2" />
<rect x="745" y="55" width="12" height="12" fill="#2c2e31" rx="2" />
<rect x="745" y="70" width="12" height="12" fill="#2c2e31" rx="2" />
<rect x="745" y="85" width="12" height="12" fill="#2c2e31" rx="2" />
<rect x="745" y="100" width="12" height="12" fill="#2c2e31" rx="2" />
<rect x="760" y="10" width="12" height="12" fill="#2c2e31" rx="2" />
<rect x="760" y="25" width="12" height="12" fill="#2c2e31" rx="2" />
<rect x="760" y="40" width="12" height="12" fill="#2c2e31" rx="2" />
<rect x="760" y="55" width="12" height="12" fill="#2c2e31" rx="2" />
<rect x="760" y="70" width="12" height="12" fill="#2c2e31" rx="2" />
<rect x="760" y="85" width="12" height="12" fill="#2c2e31" rx="2" />
<rect x="760" y="100" width="12" height="12" fill="#2c2e31" rx="2" />
<rect x="775" y="10" width="12" height="12" fill="#2c2e31" rx="2" />
<rect x="775" y="25" width="12" height="12" fill="#2c2e31" rx="2" />
<rect x="775" y="40" width="12" height="12" fill="#2c2e31" rx="2" />
<rect x="775" y="55" width="12" height="12" fill="#2c2e31" rx="2" />
<rect x="775" y="70" width="12" height="12" fill="#2c2e31" rx="2" />
<rect x="775" y="85" width="12" height="12" fill="#2c2e31" rx="2" />
<rect x="775" y="100" width="12" height="12" fill="#005a5a" rx="2" />
<rect x="790" y="10" width="12" height="12" fill="#2c2e31" rx="2" />
</svg>