<svg xmlns="http://www.w3.org/2000/svg" width="245" height="145" viewBox="0 0 245 145" style="font-family: sans-serif; font-size: 10px;">
<rect width="100%" height="100%" fill="#323437" rx="8"/>
<text x="5" y="45" fill="#646669">Mon</text>
<text x="5" y="75" fill="#646669">Wed</text>
<text x="5" y="105" fill="#646669">Fri</text>
<text x="30" y="15" fill="#646669">Nov</text>
<rect x="30" y="20" width="12" height="12" fill="#2c2e31" rx="2"><title>2025-11-16: 0 tests</title></rect>
<rect x="30" y="35" width="12" height="12" fill="#2c2e31" rx="2"><title>2025-11-17: 0 tests</title></rect>
<rect x="30" y="50" width="12" height="12" fill="#2c2e31" rx="2"><title>2025-11-18: 0 tests</title></rect>
<rect x="30" y="65" width="12" height="12" fill="#2c2e31" rx="2"><title>2025-11-19: 0 tests</title></rect>
<rect x="30" y="80" width="12" height="12" fill="#2c2e31" rx="2"><title>2025-11-20: 0 tests</title></rect>
<rect x="30" y="95" width="12" height="12" fill="#2c2e31" rx="2"><title>2025-11-21: 0 tests</title></rect>
<rect x="30" y="110" width="12" height="12" fill="#2c2e31" rx="2"><title>2025-11-22: 0 tests</title></rect>
<rect x="45" y="20" width="12" height="12" fill="#2c2e31" rx="2"><title>2025-11-23: 0 tests</title></rect>
<rect x="45" y="35" width="12" height="12" fill="#2c2e31" rx="2"><title>2025-11-24: 0 tests</title></rect>
<rect x="45" y="50" width="12" height="12" fill="#2c2e31" rx="2"><title>2025-11-25: 0 tests</title></rect>
<rect x="45" y="65" width="12" height="12" fill="#2c2e31" rx="2"><title>2025-11-26: 0 tests</title></rect>
<rect x="45" y="80" width="12" height="12" fill="#2c2e31" rx="2"><title>2025-11-27: 0 tests</title></rect>
<rect x="45" y="95" width="12" height="12" fill="#2c2e31" rx="2"><title>2025-11-28: 0 tests</title></rect>
<rect x="45" y="110" width="12" height="12" fill="#665c27" rx="2"><title>2025-11-29: 4 tests</title></rect>
<rect x="60" y="20" width="12" height="12" fill="#cca72f" rx="2"><title>2025-11-30: 17 tests</title></rect>
<rect x="60" y="35" width="12" height="12" fill="#2c2e31" rx="2"><title>2025-12-01: 0 tests</title></rect>
<rect x="60" y="50" width="12" height="12" fill="#998a2f" rx="2"><title>2025-12-02: 8 tests</title></rect>
<rect x="60" y="65" width="12" height="12" fill="#665c27" rx="2"><title>2025-12-03: 1 tests</title></rect>
<rect x="60" y="80" width="12" height="12" fill="#998a2f" rx="2"><title>2025-12-04: 11 tests</title></rect>
<rect x="60" y="95" width="12" height="12" fill="#e2b714" rx="2"><title>2025-12-05: 34 tests</title></rect>
<rect x="60" y="110" width="12" height="12" fill="#2c2e31" rx="2"><title>2025-12-06: 0 tests</title></rect>
<text x="75" y="15" fill="#646669">Dec</text>
<rect x="75" y="20" width="12" height="12" fill="#665c27" rx="2"><title>2025-12-07: 1 tests</title></rect>
<rect x="75" y="35" width="12" height="12" fill="#2c2e31" rx="2"><title>2025-12-08: 0 tests</title></rect>
<rect x="75" y="50" width="12" height="12" fill="#665c27" rx="2"><title>2025-12-09: 4 tests</title></rect>
<rect x="75" y="65" width="12" height="12" fill="#665c27" rx="2"><title>2025-12-10: 1 tests</title></rect>
<rect x="75" y="80" width="12" height="12" fill="#2c2e31" rx="2"><title>2025-12-11: 0 tests</title></rect>
<rect x="75" y="95" width="12" height="12" fill="#2c2e31" rx="2"><title>2025-12-12: 0 tests</title></rect>
<rect x="75" y="110" width="12" height="12" fill="#e2b714" rx="2"><title>2025-12-13: 45 tests</title></rect>
<rect x="90" y="20" width="12" height="12" fill="#cca72f" rx="2"><title>2025-12-14: 16 tests</title></rect>
<rect x="90" y="35" width="12" height="12" fill="#2c2e31" rx="2"><title>2025-12-15: 0 tests</title></rect>
<rect x="90" y="50" width="12" height="12" fill="#2c2e31" rx="2"><title>2025-12-16: 0 tests</title></rect>
<rect x="90" y="65" width="12" height="12" fill="#665c27" rx="2"><title>2025-12-17: 2 tests</title></rect>
<rect x="90" y="80" width="12" height="12" fill="#cca72f" rx="2"><title>2025-12-18: 18 tests</title></rect>
<rect x="90" y="95" width="12" height="12" fill="#2c2e31" rx="2"><title>2025-12-19: 0 tests</title></rect>
<rect x="90" y="110" width="12" height="12" fill="#e2b714" rx="2"><title>2025-12-20: 40 tests</title></rect>
<rect x="105" y="20" width="12" height="12" fill="#2c2e31" rx="2"><title>2025-12-21: 0 tests</title></rect>
<rect x="105" y="35" width="12" height="12" fill="#2c2e31" rx="2"><title>2025-12-22: 0 tests</title></rect>
<rect x="105" y="50" width="12" height="12" fill="#2c2e31" rx="2"><title>2025-12-23: 0 tests</title></rect>
<rect x="105" y="65" width="12" height="12" fill="#2c2e31" rx="2"><title>2025-12-24: 0 tests</title></rect>
<rect x="105" y="80" width="12" height="12" fill="#2c2e31" rx="2"><title>2025-12-25: 0 tests</title></rect>
<rect x="105" y="95" width="12" height="12" fill="#2c2e31" rx="2"><title>2025-12-26: 0 tests</title></rect>
<rect x="105" y="110" width="12" height="12" fill="#2c2e31" rx="2"><title>2025-12-27: 0 tests</title></rect>
<rect x="120" y="20" width="12" height="12" fill="#998a2f" rx="2"><title>2025-12-28: 9 tests</title></rect>
<rect x="120" y="35" width="12" height="12" fill="#2c2e31" rx="2"><title>2025-12-29: 0 tests</title></rect>
<rect x="120" y="50" width="12" height="12" fill="#2c2e31" rx="2"><title>2025-12-30: 0 tests</title></rect>
<rect x="120" y="65" width="12" height="12" fill="#2c2e31" rx="2"><title>2025-12-31: 0 tests</title></rect>
<rect x="120" y="80" width="12" height="12" fill="#2c2e31" rx="2"><title>2026-01-01: 0 tests</title></rect>
<rect x="120" y="95" width="12" height="12" fill="#2c2e31" rx="2"><title>2026-01-02: 0 tests</title></rect>
<rect x="120" y="110" width="12" height="12" fill="#665c27" rx="2"><title>2026-01-03: 3 tests</title></rect>
<text x="135" y="15" fill="#646669">Jan</text>
<rect x="135" y="20" width="12" height="12" fill="#cca72f" rx="2"><title>2026-01-04: 30 tests</title></rect>
<rect x="135" y="35" width="12" height="12" fill="#e2b714" rx="2"><title>2026-01-05: 51 tests</title></rect>
<rect x="135" y="50" width="12" height="12" fill="#2c2e31" rx="2"><title>2026-01-06: 0 tests</title></rect>
<rect x="135" y="65" width="12" height="12" fill="#2c2e31" rx="2"><title>2026-01-07: 0 tests</title></rect>
<rect x="135" y="80" width="12" height="12" fill="#2c2e31" rx="2"><title>2026-01-08: 0 tests</title></rect>
<rect x="135" y="95" width="12" height="12" fill="#2c2e31" rx="2"><title>2026-01-09: 0 tests</title></rect>
<rect x="135" y="110" width="12" height="12" fill="#2c2e31" rx="2"><title>2026-01-10: 0 tests</title></rect>
<rect x="150" y="20" width="12" height="12" fill="#cca72f" rx="2"><title>2026-01-11: 23 tests</title></rect>
<rect x="150" y="35" width="12" height="12" fill="#665c27" rx="2"><title>2026-01-12: 2 tests</title></rect>
<rect x="150" y="50" width="12" height="12" fill="#2c2e31" rx="2"><title>2026-01-13: 0 tests</title></rect>
<rect x="150" y="65" width="12" height="12" fill="#2c2e31" rx="2"><title>2026-01-14: 0 tests</title></rect>
<rect x="150" y="80" width="12" height="12" fill="#2c2e31" rx="2"><title>2026-01-15: 0 tests</title></rect>
<rect x="150" y="95" width="12" height="12" fill="#2c2e31" rx="2"><title>2026-01-16: 0 tests</title></rect>
<rect x="150" y="110" width="12" height="12" fill="#2c2e31" rx="2"><title>2026-01-17: 0 tests</title></rect>
<rect x="165" y="20" width="12" height="12" fill="#2c2e31" rx="2"><title>2026-01-18: 0 tests</title></rect>
<rect x="165" y="35" width="12" height="12" fill="#2c2e31" rx="2"><title>2026-01-19: 0 tests</title></rect>
<rect x="165" y="50" width="12" height="12" fill="#2c2e31" rx="2"><title>2026-01-20: 0 tests</title></rect>
<rect x="165" y="65" width="12" height="12" fill="#665c27" rx="2"><title>2026-01-21: 3 tests</title></rect>
<rect x="165" y="80" width="12" height="12" fill="#998a2f" rx="2"><title>2026-01-22: 8 tests</title></rect>
<rect x="165" y="95" width="12" height="12" fill="#2c2e31" rx="2"><title>2026-01-23: 0 tests</title></rect>
<rect x="165" y="110" width="12" height="12" fill="#2c2e31" rx="2"><title>2026-01-24: 0 tests</title></rect>
<rect x="180" y="20" width="12" height="12" fill="#2c2e31" rx="2"><title>2026-01-25: 0 tests</title></rect>
<rect x="180" y="35" width="12" height="12" fill="#2c2e31" rx="2"><title>2026-01-26: 0 tests</title></rect>
<rect x="180" y="50" width="12" height="12" fill="#2c2e31" rx="2"><title>2026-01-27: 0 tests</title></rect>
<rect x="180" y="65" width="12" height="12" fill="#2c2e31" rx="2"><title>2026-01-28: 0 tests</title></rect>
<rect x="180" y="80" width="12" height="12" fill="#2c2e31" rx="2"><title>2026-01-29: 0 tests</title></rect>
<rect x="180" y="95" width="12" height="12" fill="#2c2e31" rx="2"><title>2026-01-30: 0 tests</title></rect>
<rect x="180" y="110" width="12" height="12" fill="#2c2e31" rx="2"><title>2026-01-31: 0 tests</title></rect>
<text x="195" y="15" fill="#646669">Feb</text>
<rect x="195" y="20" width="12" height="12" fill="#2c2e31" rx="2"><title>2026-02-01: 0 tests</title></rect>
<rect x="195" y="35" width="12" height="12" fill="#2c2e31" rx="2"><title>2026-02-02: 0 tests</title></rect>
<rect x="195" y="50" width="12" height="12" fill="#2c2e31" rx="2"><title>2026-02-03: 0 tests</title></rect>
<rect x="195" y="65" width="12" height="12" fill="#2c2e31" rx="2"><title>2026-02-04: 0 tests</title></rect>
<rect x="195" y="80" width="12" height="12" fill="#2c2e31" rx="2"><title>2026-02-05: 0 tests</title></rect>
<rect x="195" y="95" width="12" height="12" fill="#2c2e31" rx="2"><title>2026-02-06: 0 tests</title></rect>
<rect x="195" y="110" width="12" height="12" fill="#2c2e31" rx="2"><title>2026-02-07: 0 tests</title></rect>
<rect x="210" y="20" width="12" height="12" fill="#2c2e31" rx="2"><title>2026-02-08: 0 tests</title></rect>
<rect x="210" y="35" width="12" height="12" fill="#2c2e31" rx="2"><title>2026-02-09: 0 tests</title></rect>
<rect x="210" y="50" width="12" height="12" fill="#2c2e31" rx="2"><title>2026-02-10: 0 tests</title></rect>
<rect x="210" y="65" width="12" height="12" fill="#2c2e31" rx="2"><title>2026-02-11: 0 tests</title></rect>
<rect x="210" y="80" width="12" height="12" fill="#2c2e31" rx="2"><title>2026-02-12: 0 tests</title></rect>
</svg>